<svg width="1104" height="483" viewBox="0 0 1104 483" fill="none" xmlns="http://www.w3.org/2000/svg">
<path d="M600.323 291.936L597.393 293.426C597.344 293.451 597.294 293.474 597.243 293.495C596.117 293.973 594.798 293.503 594.235 292.397C593.646 291.241 594.107 289.826 595.263 289.238L598.439 287.622C598.534 287.574 598.633 287.543 598.731 287.509C598.099 285.036 597.91 282.465 598.584 280.073L595.414 278.353C594.274 277.735 593.851 276.309 594.468 275.168C595.088 274.029 596.515 273.606 597.654 274.224L600.901 275.985C602.252 274.539 604.085 273.439 606.387 272.694L605.735 269.458C605.48 268.184 606.31 266.943 607.574 266.691C608.846 266.434 610.084 267.257 610.341 268.529L610.983 271.711C613.294 271.348 615.643 271.097 618.034 270.991C618.03 270.941 618.018 270.895 618.017 270.845L617.965 267.217C617.946 265.92 618.983 264.857 620.28 264.834C621.578 264.816 622.644 265.852 622.662 267.15L622.714 270.778C622.715 270.838 622.693 270.892 622.69 270.952C623.838 270.98 624.987 271.013 626.146 271.099C627.159 271.174 628.181 271.278 629.211 271.403C629.214 271.283 629.217 271.162 629.238 271.04L629.801 267.859C630.028 266.579 631.249 265.729 632.525 265.955C633.802 266.181 634.654 267.4 634.428 268.677L633.865 271.858C633.848 271.953 633.809 272.037 633.781 272.126C635.67 272.481 637.59 272.901 639.571 273.423C639.573 273.166 639.592 272.905 639.683 272.648L640.621 270.017C641.057 268.794 642.402 268.158 643.622 268.593C644.844 269.029 645.482 270.372 645.046 271.594L644.108 274.225C644.05 274.387 643.976 274.539 643.889 274.68C645.827 275.285 647.817 275.965 649.875 276.728L651.159 273.487C651.636 272.281 653.004 271.691 654.208 272.169C655.415 272.647 656.004 274.012 655.526 275.218L654.254 278.429C654.333 278.461 654.407 278.488 654.486 278.52L655.402 278.893C656.139 279.192 656.881 279.497 657.622 279.811L658.895 277.474C659.514 276.335 660.942 275.915 662.08 276.535C663.22 277.155 663.64 278.583 663.019 279.722L661.849 281.871C663.001 282.518 664.13 283.22 665.187 284.08C666.193 284.899 666.346 286.379 665.526 287.385C664.71 288.39 663.228 288.542 662.222 287.724C659.79 285.744 656.801 284.531 653.635 283.246L652.708 282.869C642.344 278.631 633.792 276.38 625.797 275.785C620.267 275.372 614.863 275.668 609.737 276.66C606.342 277.322 604.189 278.673 603.335 280.688C602.04 283.743 603.458 288.932 607.128 294.57C614.642 306.106 626.152 314.914 642.318 321.492C652.129 325.484 662.37 328.826 671.096 331.567C673.999 332.48 676.959 333.488 679.821 334.462C686.236 336.645 692.869 338.902 699.395 340.278C704.474 341.347 721.369 344.036 725.654 333.713C728.213 327.542 723.578 321.039 718.831 317.345C712.934 312.757 705.655 309.967 698.616 307.268C696.986 306.643 695.361 306.02 693.756 305.378C685.481 302.064 676.536 299.09 667.207 299.764C663.985 299.997 659.405 299.988 656.858 297.241C655.894 296.199 654.841 294.316 655.297 291.258C655.489 289.975 656.684 289.092 657.968 289.282C659.25 289.473 660.135 290.669 659.944 291.952C659.724 293.421 660.161 293.892 660.305 294.047C660.793 294.574 662.294 295.409 666.869 295.078C668.287 294.976 669.689 294.962 671.08 294.999C671.082 294.967 671.077 294.936 671.08 294.904L671.45 290.903C671.568 289.611 672.717 288.661 674.005 288.78C675.297 288.9 676.248 290.044 676.127 291.336L675.756 295.338C675.755 295.351 675.749 295.363 675.747 295.376C678.532 295.729 681.258 296.301 683.926 297.031L684.667 293.852C684.963 292.589 686.225 291.801 687.489 292.098C688.752 292.392 689.537 293.655 689.243 294.918L688.433 298.393C690.84 299.202 693.199 300.094 695.502 301.016C695.759 301.118 696.022 301.216 696.279 301.318L696.977 298.326C697.27 297.064 698.536 296.277 699.798 296.573C701.061 296.868 701.846 298.13 701.551 299.394L700.701 303.036C703.192 303.992 705.705 304.965 708.193 306.028L710.051 302.636C710.675 301.499 712.103 301.082 713.241 301.704C714.378 302.328 714.795 303.755 714.173 304.893L712.474 307.994C715.217 309.341 717.876 310.871 720.388 312.676L723.528 309.443C724.439 308.509 725.922 308.491 726.851 309.395C727.781 310.299 727.803 311.786 726.899 312.717L724.039 315.66C725.688 317.256 727.212 319.123 728.425 321.169L732.26 319.696C733.47 319.231 734.83 319.836 735.294 321.047C735.749 322.232 735.181 323.558 734.021 324.05C733.996 324.061 733.97 324.071 733.943 324.082L730.353 325.461C731.144 328.021 731.34 330.741 730.644 333.5L734.423 335.017C735.627 335.5 736.211 336.868 735.727 338.073C735.485 338.676 735.02 339.124 734.466 339.359C733.914 339.593 733.273 339.618 732.673 339.377L728.787 337.817C727.726 339.516 726.407 340.891 724.903 341.988L726.893 345.142C727.585 346.239 727.257 347.69 726.161 348.382C726.05 348.451 725.937 348.51 725.822 348.559C724.78 349.001 723.544 348.636 722.92 347.649L720.758 344.222C718.578 345.07 716.241 345.572 713.902 345.83L714.449 350.033C714.588 351.103 713.985 352.097 713.039 352.499C712.846 352.581 712.64 352.638 712.422 352.666C711.136 352.834 709.958 351.927 709.79 350.641L709.193 346.06C705.621 346.034 702.357 345.601 700.064 345.191L699.57 348.688C699.451 349.534 698.894 350.211 698.161 350.522C697.781 350.684 697.354 350.747 696.916 350.685C695.631 350.504 694.738 349.316 694.919 348.031L695.465 344.163C693.78 343.749 692.101 343.301 690.427 342.811L689.085 345.882C688.834 346.454 688.384 346.876 687.85 347.103C687.277 347.346 686.608 347.362 685.992 347.093C684.803 346.573 684.26 345.189 684.78 344L685.904 341.429C683.349 340.609 680.809 339.76 678.309 338.909C678.068 338.827 677.82 338.744 677.578 338.662L676.177 341.864C675.927 342.437 675.477 342.859 674.943 343.085C674.37 343.329 673.701 343.345 673.083 343.076C671.895 342.555 671.354 341.17 671.873 339.982L673.106 337.162C671.962 336.783 670.816 336.404 669.686 336.05C668.316 335.619 666.898 335.168 665.46 334.707L663.818 338.464C663.568 339.036 663.117 339.459 662.584 339.685C662.011 339.928 661.342 339.944 660.725 339.675C659.536 339.156 658.993 337.771 659.513 336.582L660.971 333.248C658.707 332.502 656.396 331.721 654.053 330.904L652.488 334.486C652.237 335.058 651.787 335.48 651.253 335.707C650.68 335.95 650.011 335.966 649.395 335.697C648.206 335.177 647.663 333.793 648.183 332.604L649.617 329.323C647.374 328.506 645.127 327.655 642.886 326.772C642.854 326.842 642.83 326.915 642.791 326.983L641.025 330.039C640.759 330.497 640.363 330.832 639.91 331.025C639.254 331.303 638.478 331.281 637.815 330.896C636.692 330.247 636.308 328.81 636.956 327.688L638.519 324.984C636.334 324.049 634.231 323.072 632.211 322.051L630.67 324.716C630.405 325.175 630.009 325.51 629.555 325.702C628.899 325.981 628.124 325.959 627.461 325.574C626.338 324.924 625.953 323.488 626.601 322.365L628.066 319.832C626.203 318.775 624.419 317.675 622.708 316.532L621.324 318.745C621.059 319.169 620.681 319.479 620.253 319.661C619.572 319.95 618.764 319.913 618.087 319.491C616.988 318.803 616.655 317.353 617.342 316.254L618.824 313.885C618.84 313.858 618.863 313.838 618.88 313.812C617.299 312.613 615.79 311.372 614.352 310.085L612.452 312.225C612.213 312.495 611.926 312.696 611.615 312.829C610.805 313.172 609.836 313.045 609.135 312.423C608.166 311.561 608.077 310.077 608.938 309.107L610.964 306.825C609.426 305.242 607.975 303.602 606.624 301.895L603.953 303.945C603.792 304.07 603.618 304.17 603.44 304.246C602.478 304.654 601.325 304.38 600.66 303.513C599.869 302.484 600.063 301.009 601.092 300.219L603.852 298.1C603.633 297.777 603.405 297.461 603.192 297.133C602.292 295.752 601.237 293.95 600.323 291.936Z" fill="#B3365B"/>
<path d="M660.231 309.686C660.807 310.093 661.403 310.514 661.796 310.699C663.021 311.28 664.454 311.466 665.969 311.662C667.765 311.895 669.8 312.159 671.712 313.159C673.822 314.262 675.333 316.169 675.755 318.263C676.118 320.062 675.649 321.863 674.434 323.333C673.619 324.32 672.572 325.029 671.414 325.521C668.378 326.81 664.579 326.597 662.187 325.937C658.771 324.993 654.921 322.644 652.38 319.952C650.778 318.255 648.979 314.226 649.768 311.073C650.204 309.33 651.37 308.069 653.049 307.495C655.281 306.748 657.326 307.87 658 308.24C658.803 308.68 659.562 309.215 660.231 309.686ZM659.784 314.945C659.027 314.586 658.296 314.071 657.523 313.526C656.928 313.105 656.312 312.672 655.742 312.359L655.74 312.359C654.834 311.861 654.544 311.949 654.543 311.95C654.514 311.96 654.49 311.967 654.471 311.975C654.395 312.008 654.366 312.049 654.326 312.213C654.014 313.458 655.022 315.907 655.796 316.727C657.759 318.807 660.831 320.689 663.438 321.409C665.937 322.099 669.582 321.83 670.812 320.34C671.128 319.958 671.232 319.604 671.151 319.192C671.012 318.506 670.362 317.754 669.536 317.322C668.366 316.711 666.908 316.521 665.366 316.321C663.638 316.097 661.681 315.844 659.784 314.945Z" fill="#B3365B"/>
<path d="M679.939 312.113C678.347 312.789 676.508 312.046 675.832 310.454C675.156 308.862 675.898 307.023 677.491 306.347C679.083 305.671 680.921 306.414 681.597 308.006C682.273 309.598 681.531 311.437 679.939 312.113Z" fill="#B3365B"/>
<path d="M683.117 330.115C681.525 330.791 679.686 330.049 679.01 328.457C678.334 326.865 679.077 325.026 680.669 324.35C682.261 323.674 684.1 324.416 684.776 326.008C685.452 327.6 684.709 329.439 683.117 330.115Z" fill="#B3365B"/>
<path d="M629.331 296.6C627.739 297.276 625.9 296.533 625.224 294.941C624.548 293.349 625.291 291.511 626.883 290.834C628.475 290.158 630.313 290.901 630.99 292.493C631.666 294.085 630.923 295.924 629.331 296.6Z" fill="#B3365B"/>
<path d="M643.344 318.083C641.752 318.759 639.913 318.016 639.237 316.424C638.561 314.832 639.304 312.993 640.896 312.317C642.488 311.641 644.327 312.384 645.003 313.976C645.679 315.568 644.936 317.406 643.344 318.083Z" fill="#B3365B"/>
<path d="M649.189 297.791C647.597 298.468 645.758 297.725 645.082 296.133C644.406 294.541 645.148 292.702 646.741 292.026C648.333 291.35 650.171 292.092 650.847 293.685C651.523 295.277 650.781 297.115 649.189 297.791Z" fill="#B3365B"/>
<path d="M625.888 288.492C624.694 288.999 623.315 288.443 622.808 287.248L621.048 283.104C620.541 281.91 621.098 280.531 622.292 280.024C623.486 279.517 624.865 280.074 625.372 281.268L627.132 285.412C627.639 286.606 627.082 287.985 625.888 288.492Z" fill="#B3365B"/>
<path d="M630.621 281.222C631.107 280.018 632.475 279.437 633.678 279.923C634.881 280.409 635.463 281.778 634.976 282.981L633.29 287.155C633.047 287.757 632.583 288.203 632.03 288.437C631.477 288.672 630.834 288.696 630.232 288.453C629.029 287.967 628.448 286.598 628.934 285.395L630.621 281.222Z" fill="#B3365B"/>
<path d="M641.8 287.903C642.307 289.097 641.749 290.476 640.556 290.983L636.412 292.742C635.218 293.249 633.839 292.693 633.332 291.498C632.824 290.304 633.382 288.925 634.576 288.418L638.72 286.659C639.913 286.152 641.293 286.708 641.8 287.903Z" fill="#B3365B"/>
<path d="M633.371 295.843C633.856 294.64 635.225 294.059 636.428 294.545L640.603 296.23C641.805 296.716 642.387 298.085 641.901 299.288C641.658 299.889 641.194 300.335 640.641 300.57C640.088 300.805 639.445 300.829 638.844 300.586L634.669 298.901C633.466 298.415 632.885 297.046 633.371 295.843Z" fill="#B3365B"/>
<path d="M630.325 298.942C631.519 298.435 632.898 298.992 633.405 300.186L635.165 304.33C635.672 305.524 635.115 306.903 633.921 307.41C632.727 307.917 631.348 307.361 630.841 306.166L629.081 302.022C628.574 300.828 629.132 299.449 630.325 298.942Z" fill="#B3365B"/>
<path d="M627.279 302.039L625.593 306.213C625.35 306.814 624.886 307.26 624.333 307.495C623.78 307.73 623.137 307.754 622.535 307.511C621.332 307.025 620.751 305.656 621.237 304.454L622.923 300.279C623.409 299.076 624.778 298.495 625.981 298.981C627.184 299.467 627.765 300.836 627.279 302.039Z" fill="#B3365B"/>
<path d="M622.882 295.936C623.389 297.13 622.831 298.509 621.638 299.016L617.494 300.776C616.3 301.283 614.921 300.726 614.414 299.532C613.906 298.337 614.464 296.958 615.658 296.452L619.802 294.692C620.995 294.185 622.375 294.742 622.882 295.936Z" fill="#B3365B"/>
<path d="M617.37 286.848L621.544 288.533C622.747 289.019 623.329 290.388 622.843 291.591C622.6 292.193 622.136 292.639 621.583 292.874C621.03 293.109 620.387 293.132 619.785 292.889L615.611 291.204C614.408 290.719 613.826 289.35 614.312 288.147C614.798 286.944 616.167 286.363 617.37 286.848Z" fill="#B3365B"/>
<path d="M701.912 328.302C700.32 328.978 698.481 328.235 697.805 326.643C697.129 325.051 697.872 323.212 699.464 322.536C701.056 321.86 702.894 322.603 703.571 324.195C704.247 325.787 703.504 327.625 701.912 328.302Z" fill="#B3365B"/>
<path d="M698.469 320.194C697.275 320.701 695.896 320.144 695.389 318.95L694.216 316.187C693.709 314.993 694.266 313.614 695.46 313.107C696.653 312.6 698.033 313.157 698.54 314.351L699.713 317.114C700.22 318.308 699.663 319.687 698.469 320.194Z" fill="#B3365B"/>
<path d="M701.515 317.097L702.64 314.314C703.126 313.112 704.494 312.531 705.697 313.017C706.9 313.503 707.482 314.871 706.996 316.075L705.871 318.857C705.628 319.458 705.165 319.904 704.611 320.139C704.058 320.374 703.415 320.398 702.814 320.155C701.611 319.669 701.029 318.3 701.515 317.097Z" fill="#B3365B"/>
<path d="M705.913 323.2C705.406 322.006 705.963 320.627 707.157 320.12L709.92 318.947C711.114 318.44 712.493 318.996 713 320.191C713.507 321.385 712.95 322.764 711.756 323.271L708.993 324.444C707.799 324.951 706.42 324.394 705.913 323.2Z" fill="#B3365B"/>
<path d="M711.831 331.71C711.277 331.945 710.634 331.968 710.033 331.726L707.25 330.603C706.047 330.117 705.466 328.748 705.952 327.545C706.438 326.341 707.806 325.761 709.009 326.246L711.792 327.369C712.995 327.855 713.576 329.224 713.09 330.427C712.847 331.029 712.384 331.475 711.831 331.71Z" fill="#B3365B"/>
<path d="M702.907 330.644C704.1 330.137 705.48 330.693 705.987 331.888L707.16 334.65C707.667 335.844 707.109 337.223 705.916 337.73C704.722 338.237 703.343 337.681 702.836 336.486L701.663 333.724C701.155 332.53 701.713 331.151 702.907 330.644Z" fill="#B3365B"/>
<path d="M699.86 333.741L698.736 336.523C698.493 337.124 698.029 337.57 697.476 337.805C696.923 338.04 696.28 338.064 695.678 337.821C694.475 337.335 693.894 335.966 694.38 334.763L695.504 331.98C695.991 330.778 697.359 330.197 698.562 330.683C699.765 331.169 700.346 332.537 699.86 333.741Z" fill="#B3365B"/>
<path d="M688.376 330.647C687.868 329.453 688.426 328.074 689.62 327.567L692.383 326.394C693.576 325.887 694.956 326.443 695.463 327.638C695.97 328.832 695.412 330.211 694.219 330.718L691.456 331.891C690.262 332.398 688.883 331.841 688.376 330.647Z" fill="#B3365B"/>
<path d="M694.164 324.575C693.611 324.81 692.968 324.834 692.367 324.592L689.584 323.468C688.38 322.982 687.799 321.614 688.285 320.41C688.771 319.207 690.139 318.627 691.342 319.111L694.125 320.235C695.328 320.721 695.91 322.09 695.424 323.293C695.181 323.894 694.717 324.34 694.164 324.575Z" fill="#B3365B"/>
<path d="M473.942 130.212C473.942 130.212 465.365 130.212 469.264 155.162C473.162 180.113 490.316 208.183 484.858 231.574C484.858 231.574 496.554 211.301 485.638 180.893C474.722 150.484 473.942 136.449 473.942 130.212Z" fill="#408C0E"/>
<path d="M474.722 195.707C474.722 195.707 468.484 225.336 459.907 233.913C451.331 242.49 457.568 257.304 471.603 257.304C471.603 257.304 466.145 246.388 470.823 233.913C476.281 220.658 474.722 198.826 474.722 195.707Z" fill="#408C0E"/>
<path d="M497.333 204.284C497.333 204.284 488.756 169.977 497.333 172.316C502.791 174.655 494.994 183.232 497.333 204.284Z" fill="#408C0E"/>
<path d="M470.043 172.316C470.043 172.316 483.298 206.623 430.278 226.896C377.258 247.168 373.359 250.287 359.324 271.339C359.324 271.339 371.8 236.252 427.159 217.539C456.788 207.403 465.365 189.47 470.043 172.316Z" fill="#408C0E"/>
<path d="M423.261 282.255C431.838 239.371 443.533 238.591 449.771 234.693C461.467 226.896 449.771 222.997 445.093 226.896C438.075 231.574 423.261 237.032 423.261 282.255Z" fill="#408C0E"/>
<path d="M504.351 201.945C504.351 201.945 517.606 227.675 499.672 244.829C486.417 257.304 477.841 270.559 477.841 270.559C477.841 270.559 479.4 256.525 496.554 233.913C508.249 217.539 504.351 210.522 504.351 201.945Z" fill="#408C0E"/>
<path d="M516.826 217.539C516.826 217.539 531.641 247.168 557.371 254.185C581.542 261.203 587 276.797 587 276.797C587 276.797 566.728 265.101 557.371 263.542C529.302 257.304 515.267 230.014 516.826 217.539Z" fill="#408C0E"/>
<path d="M480.959 120.855C480.959 120.855 488.756 109.939 483.298 98.2435C477.061 86.5479 461.466 74.8522 461.466 74.8522C461.466 74.8522 459.127 89.6667 463.026 96.6841C467.704 103.701 480.959 113.058 480.959 120.855Z" fill="#408C0E"/>
<path d="M522.284 169.977C522.284 169.977 523.843 155.942 512.927 148.925C502.011 141.907 482.519 139.568 482.519 139.568C482.519 139.568 487.977 153.603 495.774 157.501C503.571 161.4 518.385 162.959 522.284 169.977Z" fill="#408C0E"/>
<path d="M469.264 121.635C469.264 121.635 468.484 107.6 456.788 102.142C445.093 96.684 425.6 96.684 425.6 96.684C425.6 96.684 432.617 109.939 440.414 113.058C448.991 116.956 465.365 115.397 469.264 121.635Z" fill="#408C0E"/>
<path d="M367.122 97.4639C367.122 97.4639 366.342 83.4291 354.646 77.9711C342.951 72.5132 323.458 72.5132 323.458 72.5132C323.458 72.5132 330.475 85.7682 338.273 88.8871C346.07 92.0059 362.444 91.2262 367.122 97.4639Z" fill="#408C0E"/>
<path d="M483.299 127.093C483.299 127.093 496.554 129.432 505.13 119.296C512.928 109.159 517.606 89.6666 517.606 89.6666C517.606 89.6666 503.571 93.5652 498.113 100.583C492.655 107.6 491.096 123.974 483.299 127.093Z" fill="#408C0E"/>
<path d="M557.371 144.246C557.371 144.246 552.693 130.991 540.218 129.432C527.742 127.872 508.25 133.33 508.25 133.33C508.25 133.33 519.165 143.467 527.742 144.246C536.319 145.026 551.134 139.568 557.371 144.246Z" fill="#408C0E"/>
<path d="M487.197 89.6666C487.197 89.6666 500.452 87.3275 504.351 74.8521C508.249 62.3768 504.351 42.884 504.351 42.884C504.351 42.884 492.655 52.2406 490.316 60.0377C487.977 67.8348 492.655 84.2087 487.197 89.6666Z" fill="#408C0E"/>
<path d="M410.785 56.1392C410.785 56.1392 407.667 69.3943 417.023 77.9711C427.159 86.5479 445.872 92.0059 445.872 92.0059C445.872 92.0059 442.753 77.1914 435.736 71.7334C428.719 67.0551 413.125 63.9363 410.785 56.1392Z" fill="#408C0E"/>
<path d="M318 112.278C318 112.278 325.017 123.974 338.272 123.194C351.528 122.415 368.681 113.058 368.681 113.058C368.681 113.058 356.206 105.261 347.629 106.041C339.052 106.82 325.017 116.177 318 112.278Z" fill="#408C0E"/>
<path d="M528.522 92.0059C528.522 92.0059 541.777 96.6842 551.133 88.1074C560.49 79.5306 568.287 60.8175 568.287 60.8175C568.287 60.8175 553.472 62.3769 547.235 68.6146C541.777 74.8523 536.319 90.4465 528.522 92.0059Z" fill="#408C0E"/>
<path d="M512.927 74.8523C512.927 74.8523 526.183 77.1914 534.759 67.0552C542.556 56.919 547.235 37.4262 547.235 37.4262C547.235 37.4262 533.2 41.3248 527.742 48.3422C522.284 56.1392 519.945 71.7334 512.927 74.8523Z" fill="#408C0E"/>
<path d="M470.823 74.0724C470.823 74.0724 479.4 63.1565 473.162 51.4609C466.925 39.7652 452.11 27.2899 452.11 27.2899C452.11 27.2899 448.991 42.1043 453.67 49.1217C458.348 57.6985 471.603 66.2753 470.823 74.0724Z" fill="#408C0E"/>
<path d="M440.414 65.4958C440.414 65.4958 443.533 52.2407 434.177 43.6639C424.82 35.0871 406.107 29.6291 406.107 29.6291C406.107 29.6291 409.226 44.4436 416.243 49.9016C422.481 55.3596 438.075 58.4784 440.414 65.4958Z" fill="#408C0E"/>
<path d="M410.006 92.0058C410.006 92.0058 410.006 77.971 398.31 72.5131C386.614 67.0551 367.122 67.0551 367.122 67.0551C367.122 67.0551 374.139 80.3102 381.936 83.429C389.733 87.3276 405.327 85.7681 410.006 92.0058Z" fill="#408C0E"/>
<path d="M397.531 132.551C397.531 132.551 388.174 122.415 375.699 126.313C363.223 130.212 348.409 143.467 348.409 143.467C348.409 143.467 362.444 148.925 370.241 145.806C378.038 142.687 390.513 130.212 397.531 132.551Z" fill="#408C0E"/>
<path d="M568.287 106.82C568.287 106.82 558.93 96.6841 546.455 99.803C533.98 102.922 519.165 116.177 519.165 116.177C519.165 116.177 533.2 121.635 540.997 119.296C548.794 116.957 560.49 105.261 568.287 106.82Z" fill="#408C0E"/>
<path d="M481.739 46.7826C481.739 46.7826 494.994 44.4435 498.893 31.9681C502.791 19.4927 498.893 0 498.893 0C498.893 0 487.197 9.35652 484.858 17.1536C483.298 25.7304 487.197 41.3246 481.739 46.7826Z" fill="#408C0E"/>
<path d="M462.246 132.551C462.246 132.551 454.449 120.855 441.974 122.414C428.719 123.974 412.345 134.11 412.345 134.11C412.345 134.11 424.82 141.907 433.397 140.348C441.974 138.788 455.229 129.432 462.246 132.551Z" fill="#408C0E"/>
<path d="M459.907 143.467C459.907 143.467 446.652 138.788 437.296 148.145C427.939 157.501 420.922 175.435 420.922 175.435C420.922 175.435 435.736 173.096 441.194 166.858C447.432 160.62 452.11 145.026 459.907 143.467Z" fill="#408C0E"/>
<path d="M373.359 151.264C373.359 151.264 380.377 162.959 393.632 162.18C406.887 161.4 423.261 151.264 423.261 151.264C423.261 151.264 410.785 143.467 402.208 144.246C393.632 145.806 380.377 155.162 373.359 151.264Z" fill="#408C0E"/>
<path d="M425.6 119.296C425.6 119.296 422.481 106.041 410.006 102.142C397.531 99.0233 378.038 102.142 378.038 102.142C378.038 102.142 387.394 113.838 395.971 115.397C404.548 116.957 420.142 113.058 425.6 119.296Z" fill="#408C0E"/>
<path d="M381.511 296.394C383.921 303.37 391.558 307.084 398.534 304.674C405.509 302.264 409.224 294.627 406.814 287.651C404.404 280.676 396.767 276.961 389.791 279.371C382.815 281.782 379.101 289.419 381.511 296.394ZM405.232 288.198C407.342 294.302 404.092 300.983 397.987 303.093C391.883 305.202 385.202 301.952 383.093 295.848C380.983 289.743 384.233 283.062 390.337 280.953C396.442 278.844 403.123 282.093 405.232 288.198Z" fill="#EBCACA"/>
<path d="M385.465 295.028C387.122 299.824 392.372 302.378 397.168 300.721C401.964 299.063 404.517 293.813 402.86 289.017C401.203 284.222 395.953 281.668 391.157 283.325C386.362 284.982 383.808 290.232 385.465 295.028ZM401.279 289.564C402.635 293.488 400.545 297.783 396.621 299.139C392.698 300.495 388.402 298.406 387.046 294.482C385.69 290.557 387.78 286.262 391.704 284.906C395.627 283.551 399.923 285.64 401.279 289.564Z" fill="#EBCACA"/>
<path d="M395.011 297.04L394.465 295.459C393.157 295.911 391.725 295.214 391.273 293.906L389.691 294.453C390.445 296.633 392.831 297.793 395.011 297.04Z" fill="#EBCACA"/>
<path d="M367.021 326.184C369.431 333.16 377.068 336.874 384.044 334.464C391.019 332.054 394.734 324.417 392.324 317.441C389.914 310.465 382.277 306.751 375.301 309.161C368.325 311.571 364.611 319.208 367.021 326.184ZM390.742 317.988C392.852 324.092 389.602 330.773 383.497 332.882C377.393 334.992 370.712 331.742 368.603 325.638C366.493 319.533 369.743 312.852 375.847 310.743C381.952 308.633 388.633 311.883 390.742 317.988Z" fill="#EBCACA"/>
<path d="M370.975 324.818C372.632 329.614 377.882 332.167 382.678 330.51C387.474 328.853 390.027 323.603 388.37 318.807C386.713 314.012 381.463 311.458 376.667 313.115C371.872 314.772 369.318 320.022 370.975 324.818ZM386.789 319.354C388.145 323.278 386.055 327.573 382.131 328.929C378.208 330.285 373.912 328.196 372.556 324.271C371.2 320.347 373.29 316.052 377.214 314.696C381.137 313.34 385.433 315.429 386.789 319.354Z" fill="#EBCACA"/>
<path d="M380.521 326.83L379.975 325.249C378.667 325.7 377.235 325.004 376.783 323.696L375.201 324.243C375.955 326.423 378.341 327.583 380.521 326.83Z" fill="#EBCACA"/>
<path d="M397.615 317.383C398.82 320.871 402.638 322.728 406.126 321.523C409.614 320.318 411.471 316.5 410.266 313.012C409.061 309.524 405.242 307.667 401.755 308.872C398.267 310.077 396.41 313.895 397.615 317.383ZM408.685 313.558C409.589 316.175 408.196 319.038 405.58 319.942C402.963 320.846 400.1 319.453 399.196 316.837C398.292 314.22 399.685 311.357 402.301 310.453C404.918 309.549 407.781 310.942 408.685 313.558Z" fill="#EBCACA"/>
<path d="M405.824 318.087L405.277 316.506C403.97 316.958 402.538 316.261 402.086 314.953L400.504 315.5C401.257 317.68 403.644 318.84 405.824 318.087Z" fill="#EBCACA"/>
<path d="M364.302 295.26C365.507 298.747 369.326 300.605 372.813 299.4C376.301 298.194 378.158 294.376 376.953 290.888C375.748 287.4 371.93 285.543 368.442 286.748C364.954 287.953 363.097 291.772 364.302 295.26ZM375.372 291.435C376.276 294.051 374.883 296.914 372.267 297.818C369.65 298.722 366.787 297.33 365.883 294.713C364.979 292.097 366.372 289.234 368.988 288.33C371.605 287.426 374.468 288.818 375.372 291.435Z" fill="#EBCACA"/>
<path d="M372.511 295.963L371.965 294.382C370.657 294.834 369.225 294.137 368.773 292.83L367.191 293.376C367.945 295.556 370.331 296.717 372.511 295.963Z" fill="#EBCACA"/>
<path d="M792.362 335.496C800.366 339.612 803.576 349.251 799.459 357.256C795.343 365.26 785.563 368.397 777.559 364.28C769.555 360.164 766.559 350.457 770.675 342.453C774.791 334.448 784.358 331.38 792.362 335.496V335.496ZM761.159 328.506C764.529 330.239 765.825 334.28 764.092 337.65C762.359 341.02 758.39 342.176 755.02 340.443C751.65 338.71 750.281 334.809 752.014 331.439C753.747 328.069 757.789 326.772 761.159 328.506ZM785.546 307.666C790.881 310.409 792.858 316.929 790.114 322.264C787.37 327.599 780.991 329.648 775.653 326.903C770.315 324.158 768.269 317.78 771.014 312.442C773.76 307.104 780.208 304.92 785.546 307.666Z" fill="#EBCACA"/>
<path d="M163.109 327.795C162.967 327.525 162.753 327.299 162.491 327.141C162.23 326.984 161.93 326.901 161.625 326.901H149.717L156.112 305.153C156.223 304.774 156.197 304.367 156.039 304.005C155.88 303.643 155.599 303.349 155.245 303.174C154.89 302.999 154.485 302.954 154.102 303.048C153.718 303.142 153.379 303.368 153.146 303.687L127.738 338.394C127.555 338.644 127.444 338.94 127.419 339.249C127.394 339.559 127.455 339.869 127.595 340.145C127.736 340.422 127.95 340.654 128.214 340.817C128.478 340.979 128.783 341.065 129.093 341.065H142.274L135.678 363.855C135.567 364.238 135.596 364.649 135.761 365.013C135.926 365.377 136.215 365.67 136.576 365.84C136.938 366.01 137.348 366.046 137.733 365.941C138.119 365.836 138.454 365.596 138.679 365.266L163.013 329.524C163.185 329.272 163.285 328.978 163.302 328.673C163.319 328.368 163.252 328.064 163.109 327.795ZM141.834 354.666L146.121 339.853C146.193 339.603 146.207 339.339 146.16 339.083C146.113 338.827 146.007 338.585 145.85 338.377C145.694 338.169 145.491 338 145.258 337.883C145.025 337.767 144.768 337.707 144.507 337.707H132.403L150.179 313.425L145.863 328.106C145.789 328.356 145.775 328.62 145.821 328.877C145.867 329.134 145.973 329.377 146.129 329.586C146.286 329.795 146.489 329.965 146.722 330.081C146.956 330.198 147.213 330.259 147.474 330.259H158.451L141.834 354.666Z" fill="#EBCACA"/>
<path d="M124.269 334.421C124.269 333.928 124.074 333.455 123.725 333.106C123.376 332.758 122.903 332.562 122.41 332.562H118.859C118.366 332.562 117.893 332.758 117.545 333.106C117.196 333.455 117 333.928 117 334.421C117 334.914 117.196 335.387 117.545 335.735C117.893 336.084 118.366 336.28 118.859 336.28H122.41C122.655 336.28 122.896 336.232 123.122 336.138C123.347 336.045 123.552 335.908 123.725 335.735C123.898 335.563 124.035 335.358 124.128 335.132C124.221 334.907 124.27 334.665 124.269 334.421Z" fill="#EBCACA"/>
<path d="M171.859 332.562H168.307C167.814 332.562 167.341 332.758 166.993 333.106C166.644 333.455 166.448 333.928 166.448 334.421C166.448 334.914 166.644 335.387 166.993 335.735C167.341 336.084 167.814 336.28 168.307 336.28H171.859C172.352 336.28 172.825 336.084 173.173 335.735C173.522 335.387 173.718 334.914 173.718 334.421C173.718 333.928 173.522 333.455 173.173 333.106C172.825 332.758 172.352 332.562 171.859 332.562V332.562Z" fill="#EBCACA"/>
<path d="M127.714 319.361C128.061 319.696 128.524 319.883 129.007 319.883C129.489 319.883 129.952 319.696 130.299 319.361C130.634 319.014 130.821 318.551 130.821 318.069C130.821 317.586 130.634 317.123 130.299 316.776L125.279 311.738C124.921 311.469 124.478 311.339 124.031 311.37C123.584 311.402 123.164 311.593 122.848 311.91C122.531 312.227 122.339 312.647 122.308 313.094C122.276 313.54 122.407 313.983 122.676 314.341L127.714 319.361Z" fill="#EBCACA"/>
<path d="M129.814 349.481C129.505 349.269 129.139 349.156 128.765 349.156C128.39 349.156 128.024 349.269 127.715 349.481L122.676 354.501C122.335 354.848 122.145 355.315 122.145 355.802C122.145 356.289 122.335 356.756 122.676 357.103C123.024 357.444 123.491 357.635 123.977 357.635C124.464 357.635 124.931 357.444 125.279 357.103L130.299 352.065C130.577 351.658 130.683 351.157 130.592 350.672C130.501 350.188 130.221 349.759 129.814 349.481V349.481Z" fill="#EBCACA"/>
<path d="M163.003 349.481C162.645 349.236 162.213 349.124 161.782 349.164C161.35 349.205 160.946 349.394 160.639 349.701C160.333 350.007 160.143 350.411 160.103 350.843C160.062 351.275 160.174 351.707 160.419 352.065L165.439 357.104C165.786 357.444 166.254 357.635 166.74 357.635C167.227 357.635 167.694 357.444 168.042 357.104C168.382 356.756 168.573 356.289 168.573 355.802C168.573 355.316 168.382 354.848 168.042 354.501L163.003 349.481Z" fill="#EBCACA"/>
<path d="M163.003 319.361L168.042 314.341C168.311 313.983 168.441 313.54 168.41 313.093C168.378 312.647 168.186 312.226 167.87 311.91C167.553 311.593 167.133 311.402 166.686 311.37C166.24 311.338 165.797 311.469 165.439 311.738L160.419 316.777C160.083 317.123 159.896 317.587 159.896 318.069C159.896 318.551 160.083 319.015 160.419 319.361C160.765 319.696 161.229 319.884 161.711 319.884C162.193 319.883 162.656 319.696 163.003 319.361V319.361Z" fill="#EBCACA"/>
<path d="M192.255 308.35C192.439 308.283 192.076 308.392 192.255 308.35V308.35Z" fill="#B3365B"/>
<path d="M199.266 336.786C199.088 336.831 199.458 336.76 199.266 336.786V336.786Z" fill="#B3365B"/>
<path d="M199.708 337.584L299.479 313.013C299.353 312.367 298.849 310.263 298.161 307.448L261.858 316.396C261.717 316.431 261.566 316.407 261.441 316.331L253.399 311.469L242.568 314.138L238.54 320.801C238.799 321.069 239.015 321.379 239.111 321.768C239.4 322.937 238.687 324.116 237.516 324.406C236.348 324.694 235.168 323.98 234.879 322.811C234.777 322.396 234.836 321.993 234.964 321.615L233.075 320.374C232.818 320.607 232.521 320.8 232.16 320.889C230.989 321.179 229.811 320.464 229.523 319.293C229.234 318.124 229.947 316.945 231.117 316.656C232.287 316.368 233.467 317.081 233.755 318.251C233.857 318.665 233.798 319.068 233.671 319.446L235.559 320.686C235.817 320.454 236.113 320.261 236.474 320.172C236.864 320.075 237.24 320.124 237.598 320.23L241.744 313.373C241.819 313.248 241.941 313.157 242.083 313.122L253.357 310.343C253.498 310.309 253.649 310.333 253.774 310.409L261.816 315.271L297.898 306.375C297.533 304.889 297.128 303.252 296.705 301.547L263.682 309.686C263.54 309.72 263.387 309.696 263.261 309.619L248.412 300.474L234.587 303.881C234.568 304.842 233.949 305.715 232.97 305.954C232.602 306.046 232.244 306.007 231.902 305.919L230.746 307.832C231.072 308.115 231.345 308.469 231.457 308.923C231.743 310.092 231.031 311.272 229.863 311.56C229.409 311.672 228.97 311.596 228.564 311.437L227.265 313.585C227.559 313.864 227.804 314.195 227.908 314.616C228.198 315.783 227.482 316.966 226.312 317.255C225.892 317.358 225.485 317.295 225.102 317.163L223.89 319.169C224.179 319.446 224.423 319.776 224.527 320.194C224.814 321.36 224.1 322.54 222.932 322.832C222.514 322.935 222.108 322.871 221.728 322.742L220.357 325.01C220.615 325.278 220.834 325.588 220.93 325.976C221.216 327.147 220.505 328.329 219.334 328.615C218.167 328.905 216.985 328.191 216.696 327.019C216.602 326.636 216.648 326.267 216.749 325.911L214.494 324.567C214.226 324.829 213.912 325.051 213.518 325.147C212.35 325.435 211.17 324.722 210.88 323.552C210.593 322.382 211.306 321.204 212.474 320.915C213.646 320.627 214.825 321.34 215.112 322.509C215.207 322.894 215.162 323.266 215.06 323.621L217.314 324.964C217.583 324.701 217.898 324.478 218.291 324.381C218.681 324.286 219.056 324.335 219.414 324.44L220.803 322.143C220.573 321.887 220.382 321.594 220.294 321.237C220.006 320.063 220.718 318.885 221.89 318.598C222.247 318.509 222.597 318.54 222.931 318.626L224.179 316.562C223.952 316.307 223.764 316.014 223.677 315.659C223.388 314.489 224.101 313.31 225.272 313.02C225.627 312.933 225.974 312.963 226.305 313.045L227.659 310.806C227.464 310.564 227.306 310.287 227.226 309.964C226.936 308.794 227.649 307.615 228.82 307.327C229.143 307.247 229.462 307.259 229.768 307.321L230.948 305.368C230.668 305.094 230.433 304.772 230.332 304.363C230.044 303.192 230.758 302.01 231.929 301.722C232.908 301.481 233.862 301.964 234.326 302.807L248.373 299.345C248.516 299.311 248.669 299.335 248.794 299.413L263.643 308.559L296.437 300.476C294.548 292.883 292.415 284.422 292.017 282.841L192.278 307.435C186.728 309.255 177.315 315.256 180.071 326.434C182.823 337.609 193.95 338.552 199.708 337.584ZM196.786 314.872C195.617 315.163 194.435 314.448 194.147 313.277C193.86 312.111 194.572 310.929 195.741 310.64C196.911 310.352 198.093 311.066 198.38 312.236C198.484 312.65 198.424 313.053 198.296 313.43L200.185 314.67C200.443 314.437 200.738 314.245 201.1 314.156C202.27 313.868 203.45 314.582 203.739 315.752C204.027 316.922 203.315 318.1 202.144 318.39C200.975 318.677 199.793 317.964 199.504 316.795C199.401 316.379 199.462 315.976 199.59 315.598L197.701 314.359C197.443 314.591 197.147 314.784 196.786 314.872ZM198.695 331.726C198.407 330.554 199.12 329.373 200.287 329.086C200.676 328.991 201.049 329.039 201.407 329.142L202.549 327.244C202.205 326.958 201.921 326.593 201.805 326.122C201.518 324.952 202.231 323.772 203.399 323.484C203.867 323.367 204.319 323.449 204.732 323.617L206.092 321.359C205.719 321.068 205.414 320.683 205.294 320.19C205.005 319.018 205.719 317.837 206.888 317.552C207.378 317.431 207.858 317.518 208.287 317.709L209.384 315.886C209.088 315.609 208.839 315.275 208.735 314.851C208.447 313.681 209.161 312.5 210.331 312.212C210.751 312.108 211.159 312.171 211.539 312.303L212.907 310.032C212.647 309.764 212.427 309.452 212.332 309.063C212.043 307.893 212.755 306.713 213.926 306.425C215.095 306.136 216.276 306.85 216.564 308.02C216.654 308.383 216.618 308.736 216.531 309.074L218.783 310.456C219.05 310.202 219.358 309.986 219.743 309.891C220.912 309.604 222.093 310.318 222.382 311.487C222.669 312.658 221.956 313.839 220.786 314.126C219.617 314.416 218.436 313.7 218.149 312.53C218.051 312.136 218.102 311.757 218.209 311.397L215.984 310.032C215.709 310.317 215.383 310.557 214.969 310.658C214.581 310.753 214.207 310.705 213.849 310.602L212.464 312.903C212.691 313.159 212.88 313.451 212.967 313.806C213.254 314.975 212.541 316.156 211.372 316.445C211.019 316.532 210.675 316.503 210.346 316.423L209.167 318.383C209.33 318.606 209.457 318.86 209.527 319.145C209.814 320.313 209.098 321.496 207.928 321.784C207.647 321.853 207.368 321.857 207.1 321.819L205.629 324.261C205.815 324.497 205.961 324.768 206.037 325.079C206.324 326.246 205.609 327.428 204.442 327.718C204.133 327.794 203.83 327.792 203.537 327.739L202.351 329.71C202.612 329.98 202.831 330.292 202.926 330.682C203.217 331.85 202.502 333.03 201.331 333.321C200.163 333.609 198.984 332.895 198.695 331.726Z" fill="#B3365B"/>
<path d="M361.432 300.829L352.649 265.185L318.856 276.861L325.946 305.623L361.432 300.829ZM343.682 289.402C343.766 289.742 343.558 290.084 343.218 290.169C342.879 290.252 342.537 290.045 342.452 289.706C342.368 289.366 342.576 289.023 342.915 288.94C343.254 288.856 343.6 289.063 343.682 289.402ZM346.143 271.367C345.965 270.645 346.407 269.912 347.132 269.733C347.855 269.555 348.587 269.998 348.767 270.721C348.944 271.447 348.501 272.176 347.778 272.356C347.052 272.535 346.322 272.094 346.143 271.367ZM344.776 275.109C345.364 274.963 345.958 275.324 346.103 275.912C346.247 276.5 345.89 277.093 345.302 277.239C344.713 277.384 344.119 277.023 343.974 276.436C343.829 275.849 344.188 275.255 344.776 275.109ZM337.456 273.941C337.313 273.362 337.667 272.776 338.246 272.634C338.823 272.49 339.412 272.845 339.554 273.425C339.697 274.003 339.342 274.59 338.763 274.734C338.183 274.875 337.599 274.521 337.456 273.941ZM349.164 283.625C349.531 283.536 349.902 283.761 349.992 284.126C350.082 284.491 349.858 284.863 349.492 284.954C349.126 285.042 348.756 284.818 348.664 284.453C348.575 284.087 348.798 283.715 349.164 283.625ZM341.464 279.975C342.081 279.823 342.704 280.199 342.854 280.815C343.006 281.432 342.63 282.055 342.013 282.207C341.399 282.358 340.775 281.981 340.623 281.366C340.473 280.747 340.848 280.126 341.464 279.975ZM333.177 279.098C332.998 278.374 333.441 277.641 334.164 277.463C334.888 277.284 335.62 277.727 335.798 278.451C335.977 279.175 335.536 279.908 334.81 280.086C334.087 280.267 333.354 279.822 333.177 279.098ZM335.014 280.914C335.969 280.677 336.936 281.261 337.17 282.217C337.404 283.173 336.823 284.137 335.867 284.372C334.913 284.607 333.946 284.024 333.711 283.068C333.476 282.112 334.059 281.149 335.014 280.914ZM320.62 279.113C320.442 278.389 320.884 277.657 321.609 277.477C322.333 277.3 323.065 277.743 323.242 278.466C323.422 279.191 322.979 279.923 322.254 280.1C321.531 280.279 320.799 279.837 320.62 279.113ZM324.215 282.437C324.12 282.053 324.254 281.679 324.513 281.417C324.434 281.277 324.347 281.142 324.307 280.979C324.076 280.038 324.651 279.088 325.591 278.856C326.531 278.623 327.484 279.199 327.716 280.139C327.948 281.081 327.373 282.032 326.431 282.264C326.408 282.269 326.384 282.262 326.36 282.266C326.322 282.722 326.013 283.123 325.544 283.239C324.955 283.384 324.36 283.024 324.215 282.437ZM335.256 295.281C335.164 294.905 335.397 294.527 335.778 294.435C336.16 294.341 336.542 294.568 336.634 294.942C336.725 295.317 336.494 295.697 336.112 295.791C335.732 295.885 335.347 295.656 335.256 295.281ZM326.849 291.291C327.437 291.146 328.03 291.505 328.175 292.092C328.32 292.682 327.961 293.275 327.372 293.42C326.784 293.567 326.19 293.208 326.047 292.618C325.901 292.03 326.259 291.438 326.849 291.291Z" fill="#B3365B"/>
<path d="M178.126 314.067C181.002 309.31 185.946 306.228 189.967 304.699L189.952 304.644L192.075 303.997L192.099 304.056L332.456 269.444L339.415 265.394C339.942 265.087 340.617 265.266 340.924 265.793C341.232 266.318 341.053 266.995 340.526 267.302L333.138 271.551L191.66 306.438C185.354 308.53 175.595 315.131 178.478 326.827C181.364 338.541 193.112 339.836 199.629 338.754L341.267 303.868L349.626 304.236C350.236 304.263 350.708 304.779 350.681 305.388C350.655 305.996 350.139 306.468 349.529 306.442L341.487 306.088L201.17 340.647L201.179 340.71L199.019 341.128L199.002 341.073C191.618 341.986 179.466 340.066 176.333 327.355C175.011 321.985 176.009 317.572 178.126 314.067Z" fill="#B3365B"/>
<path d="M88.44 452L88.32 396.32L60.72 442.4H53.76L26.16 397.04V452H11.28V368H24.12L57.48 423.68L90.24 368H103.08L103.2 452H88.44ZM184.689 420.32C184.689 421.36 184.609 422.84 184.449 424.76H134.169C135.049 429.48 137.329 433.24 141.009 436.04C144.769 438.76 149.409 440.12 154.929 440.12C161.969 440.12 167.769 437.8 172.329 433.16L180.369 442.4C177.489 445.84 173.849 448.44 169.449 450.2C165.049 451.96 160.089 452.84 154.569 452.84C147.529 452.84 141.329 451.44 135.969 448.64C130.609 445.84 126.449 441.96 123.489 437C120.609 431.96 119.169 426.28 119.169 419.96C119.169 413.72 120.569 408.12 123.369 403.16C126.249 398.12 130.209 394.2 135.249 391.4C140.289 388.6 145.969 387.2 152.289 387.2C158.529 387.2 164.089 388.6 168.969 391.4C173.929 394.12 177.769 398 180.489 403.04C183.289 408 184.689 413.76 184.689 420.32ZM152.289 399.2C147.489 399.2 143.409 400.64 140.049 403.52C136.769 406.32 134.769 410.08 134.049 414.8H170.409C169.769 410.16 167.809 406.4 164.529 403.52C161.249 400.64 157.169 399.2 152.289 399.2ZM279.978 387.2C288.058 387.2 294.458 389.56 299.178 394.28C303.898 398.92 306.258 405.92 306.258 415.28V452H291.258V417.2C291.258 411.6 290.018 407.4 287.538 404.6C285.058 401.72 281.498 400.28 276.858 400.28C271.818 400.28 267.778 401.96 264.738 405.32C261.698 408.6 260.178 413.32 260.178 419.48V452H245.178V417.2C245.178 411.6 243.938 407.4 241.458 404.6C238.978 401.72 235.418 400.28 230.778 400.28C225.658 400.28 221.578 401.92 218.538 405.2C215.578 408.48 214.098 413.24 214.098 419.48V452H199.098V387.92H213.378V396.08C215.778 393.2 218.778 391 222.378 389.48C225.978 387.96 229.978 387.2 234.378 387.2C239.178 387.2 243.418 388.12 247.098 389.96C250.858 391.72 253.818 394.36 255.978 397.88C258.618 394.52 262.018 391.92 266.178 390.08C270.338 388.16 274.938 387.2 279.978 387.2ZM322.186 412.4H355.186V424.88H322.186V412.4ZM388.638 381.08V406.64H429.198V419.84H388.638V452H373.038V368H434.358V381.08H388.638ZM470.492 387.2C479.932 387.2 487.132 389.48 492.092 394.04C497.132 398.52 499.652 405.32 499.652 414.44V452H485.492V444.2C483.652 447 481.012 449.16 477.572 450.68C474.212 452.12 470.132 452.84 465.332 452.84C460.532 452.84 456.332 452.04 452.732 450.44C449.132 448.76 446.332 446.48 444.332 443.6C442.412 440.64 441.452 437.32 441.452 433.64C441.452 427.88 443.572 423.28 447.812 419.84C452.132 416.32 458.892 414.56 468.092 414.56H484.652V413.6C484.652 409.12 483.292 405.68 480.572 403.28C477.932 400.88 473.972 399.68 468.692 399.68C465.092 399.68 461.532 400.24 458.012 401.36C454.572 402.48 451.652 404.04 449.252 406.04L443.372 395.12C446.732 392.56 450.772 390.6 455.492 389.24C460.212 387.88 465.212 387.2 470.492 387.2ZM468.452 441.92C472.212 441.92 475.532 441.08 478.412 439.4C481.372 437.64 483.452 435.16 484.652 431.96V424.52H469.172C460.532 424.52 456.212 427.36 456.212 433.04C456.212 435.76 457.292 437.92 459.452 439.52C461.612 441.12 464.612 441.92 468.452 441.92ZM548.888 452.84C542.248 452.84 536.288 451.44 531.008 448.64C525.728 445.84 521.608 441.96 518.648 437C515.688 431.96 514.208 426.28 514.208 419.96C514.208 413.64 515.688 408 518.648 403.04C521.608 398.08 525.688 394.2 530.888 391.4C536.168 388.6 542.168 387.2 548.888 387.2C555.208 387.2 560.728 388.48 565.448 391.04C570.248 393.6 573.848 397.28 576.248 402.08L564.728 408.8C562.888 405.84 560.568 403.64 557.768 402.2C555.048 400.68 552.048 399.92 548.768 399.92C543.168 399.92 538.528 401.76 534.848 405.44C531.168 409.04 529.328 413.88 529.328 419.96C529.328 426.04 531.128 430.92 534.728 434.6C538.408 438.2 543.088 440 548.768 440C552.048 440 555.048 439.28 557.768 437.84C560.568 436.32 562.888 434.08 564.728 431.12L576.248 437.84C573.768 442.64 570.128 446.36 565.328 449C560.608 451.56 555.128 452.84 548.888 452.84ZM648.518 420.32C648.518 421.36 648.438 422.84 648.278 424.76H597.998C598.878 429.48 601.158 433.24 604.838 436.04C608.598 438.76 613.238 440.12 618.758 440.12C625.798 440.12 631.598 437.8 636.158 433.16L644.198 442.4C641.318 445.84 637.678 448.44 633.278 450.2C628.878 451.96 623.918 452.84 618.398 452.84C611.358 452.84 605.158 451.44 599.798 448.64C594.438 445.84 590.278 441.96 587.318 437C584.438 431.96 582.998 426.28 582.998 419.96C582.998 413.72 584.398 408.12 587.198 403.16C590.078 398.12 594.038 394.2 599.078 391.4C604.118 388.6 609.798 387.2 616.118 387.2C622.358 387.2 627.918 388.6 632.798 391.4C637.758 394.12 641.598 398 644.318 403.04C647.118 408 648.518 413.76 648.518 420.32ZM616.118 399.2C611.318 399.2 607.238 400.64 603.878 403.52C600.598 406.32 598.598 410.08 597.878 414.8H634.238C633.598 410.16 631.638 406.4 628.358 403.52C625.078 400.64 620.998 399.2 616.118 399.2ZM697.53 368H713.13V438.8H757.05V452H697.53V368ZM792.992 387.2C802.432 387.2 809.632 389.48 814.592 394.04C819.632 398.52 822.152 405.32 822.152 414.44V452H807.992V444.2C806.152 447 803.512 449.16 800.072 450.68C796.712 452.12 792.632 452.84 787.832 452.84C783.032 452.84 778.832 452.04 775.232 450.44C771.632 448.76 768.832 446.48 766.832 443.6C764.912 440.64 763.952 437.32 763.952 433.64C763.952 427.88 766.072 423.28 770.312 419.84C774.632 416.32 781.392 414.56 790.592 414.56H807.152V413.6C807.152 409.12 805.792 405.68 803.072 403.28C800.432 400.88 796.472 399.68 791.192 399.68C787.592 399.68 784.032 400.24 780.512 401.36C777.072 402.48 774.152 404.04 771.752 406.04L765.872 395.12C769.232 392.56 773.272 390.6 777.992 389.24C782.712 387.88 787.712 387.2 792.992 387.2ZM790.952 441.92C794.712 441.92 798.032 441.08 800.912 439.4C803.872 437.64 805.952 435.16 807.152 431.96V424.52H791.672C783.032 424.52 778.712 427.36 778.712 433.04C778.712 435.76 779.792 437.92 781.952 439.52C784.112 441.12 787.112 441.92 790.952 441.92ZM876.923 387.2C883.163 387.2 888.723 388.56 893.603 391.28C898.563 394 902.443 397.84 905.243 402.8C908.043 407.76 909.443 413.48 909.443 419.96C909.443 426.44 908.043 432.2 905.243 437.24C902.443 442.2 898.563 446.04 893.603 448.76C888.723 451.48 883.163 452.84 876.923 452.84C872.523 452.84 868.483 452.08 864.803 450.56C861.203 449.04 858.163 446.76 855.683 443.72V452H841.403V362.96H856.403V395.72C858.963 392.92 861.963 390.8 865.403 389.36C868.923 387.92 872.763 387.2 876.923 387.2ZM875.243 440C880.763 440 885.283 438.16 888.803 434.48C892.403 430.8 894.203 425.96 894.203 419.96C894.203 413.96 892.403 409.12 888.803 405.44C885.283 401.76 880.763 399.92 875.243 399.92C871.643 399.92 868.403 400.76 865.523 402.44C862.643 404.04 860.363 406.36 858.683 409.4C857.003 412.44 856.163 415.96 856.163 419.96C856.163 423.96 857.003 427.48 858.683 430.52C860.363 433.56 862.643 435.92 865.523 437.6C868.403 439.2 871.643 440 875.243 440Z" fill="white"/>
</svg>
