<svg width="1295" height="618" viewBox="0 0 1295 618" fill="none" xmlns="http://www.w3.org/2000/svg">
<rect width="1295" height="618" fill="#161E26"/>
<path d="M777.323 369.936L774.393 371.426C774.344 371.451 774.294 371.474 774.243 371.495C773.117 371.973 771.798 371.503 771.235 370.397C770.646 369.241 771.107 367.826 772.263 367.238L775.439 365.622C775.534 365.574 775.633 365.543 775.731 365.509C775.099 363.036 774.91 360.465 775.584 358.073L772.414 356.353C771.274 355.735 770.851 354.309 771.468 353.168C772.088 352.029 773.515 351.606 774.654 352.224L777.901 353.985C779.252 352.539 781.085 351.439 783.387 350.694L782.735 347.458C782.48 346.184 783.31 344.943 784.574 344.691C785.846 344.434 787.084 345.257 787.341 346.529L787.983 349.711C790.294 349.348 792.643 349.097 795.034 348.991C795.03 348.941 795.018 348.895 795.017 348.845L794.965 345.217C794.946 343.92 795.983 342.857 797.28 342.834C798.578 342.816 799.644 343.852 799.662 345.15L799.714 348.778C799.715 348.838 799.693 348.892 799.69 348.952C800.838 348.98 801.987 349.013 803.146 349.099C804.159 349.174 805.181 349.278 806.211 349.403C806.214 349.283 806.217 349.162 806.238 349.04L806.801 345.859C807.028 344.579 808.249 343.729 809.525 343.955C810.802 344.181 811.654 345.4 811.428 346.677L810.865 349.858C810.848 349.953 810.809 350.037 810.781 350.126C812.67 350.481 814.59 350.901 816.571 351.423C816.573 351.166 816.592 350.905 816.683 350.648L817.621 348.017C818.057 346.794 819.402 346.158 820.622 346.593C821.844 347.029 822.482 348.372 822.046 349.594L821.108 352.225C821.05 352.387 820.976 352.539 820.889 352.68C822.827 353.285 824.817 353.965 826.875 354.728L828.159 351.487C828.636 350.281 830.004 349.691 831.208 350.169C832.415 350.647 833.004 352.012 832.526 353.218L831.254 356.429C831.333 356.461 831.407 356.488 831.486 356.52L832.402 356.893C833.139 357.192 833.881 357.497 834.622 357.811L835.895 355.474C836.514 354.335 837.942 353.915 839.08 354.535C840.22 355.155 840.64 356.583 840.019 357.722L838.849 359.871C840.001 360.518 841.13 361.22 842.187 362.08C843.193 362.899 843.346 364.379 842.526 365.385C841.71 366.39 840.228 366.542 839.222 365.724C836.79 363.744 833.801 362.531 830.635 361.246L829.708 360.869C819.344 356.631 810.792 354.38 802.797 353.785C797.267 353.372 791.863 353.668 786.737 354.66C783.342 355.322 781.189 356.673 780.335 358.688C779.04 361.743 780.458 366.932 784.128 372.57C791.642 384.106 803.152 392.914 819.318 399.492C829.129 403.484 839.37 406.826 848.096 409.567C850.999 410.48 853.959 411.488 856.821 412.462C863.236 414.645 869.869 416.902 876.395 418.278C881.474 419.347 898.369 422.036 902.654 411.713C905.213 405.542 900.578 399.039 895.831 395.345C889.934 390.757 882.655 387.967 875.616 385.268C873.986 384.643 872.361 384.02 870.756 383.378C862.481 380.064 853.536 377.09 844.207 377.764C840.985 377.997 836.405 377.988 833.858 375.241C832.894 374.199 831.841 372.316 832.297 369.258C832.489 367.975 833.684 367.092 834.968 367.282C836.25 367.473 837.135 368.669 836.944 369.952C836.724 371.421 837.161 371.892 837.305 372.047C837.793 372.574 839.294 373.409 843.869 373.078C845.287 372.976 846.689 372.962 848.08 372.999C848.082 372.967 848.077 372.936 848.08 372.904L848.45 368.903C848.568 367.611 849.717 366.661 851.005 366.78C852.297 366.9 853.248 368.044 853.127 369.336L852.756 373.338C852.755 373.351 852.749 373.363 852.747 373.376C855.532 373.729 858.258 374.301 860.926 375.031L861.667 371.852C861.963 370.589 863.225 369.801 864.489 370.098C865.752 370.392 866.537 371.655 866.243 372.918L865.433 376.393C867.84 377.202 870.199 378.094 872.502 379.016C872.759 379.118 873.022 379.216 873.279 379.318L873.977 376.326C874.27 375.064 875.536 374.277 876.798 374.573C878.061 374.868 878.846 376.13 878.551 377.394L877.701 381.036C880.192 381.992 882.705 382.965 885.193 384.028L887.051 380.636C887.675 379.499 889.103 379.082 890.241 379.704C891.378 380.328 891.795 381.755 891.173 382.893L889.474 385.994C892.217 387.341 894.876 388.871 897.388 390.676L900.528 387.443C901.439 386.509 902.922 386.491 903.851 387.395C904.781 388.299 904.803 389.786 903.899 390.717L901.039 393.66C902.688 395.256 904.212 397.123 905.425 399.169L909.26 397.696C910.47 397.231 911.83 397.836 912.294 399.047C912.749 400.232 912.181 401.558 911.021 402.05C910.996 402.061 910.97 402.071 910.943 402.082L907.353 403.461C908.144 406.021 908.34 408.741 907.644 411.5L911.423 413.017C912.627 413.5 913.211 414.868 912.727 416.073C912.485 416.676 912.02 417.124 911.466 417.359C910.914 417.593 910.273 417.618 909.673 417.377L905.787 415.817C904.726 417.516 903.407 418.891 901.903 419.988L903.893 423.142C904.585 424.239 904.257 425.69 903.161 426.382C903.05 426.451 902.937 426.51 902.822 426.559C901.78 427.001 900.544 426.636 899.92 425.649L897.758 422.222C895.578 423.07 893.241 423.572 890.902 423.83L891.449 428.033C891.588 429.103 890.985 430.097 890.039 430.499C889.846 430.581 889.64 430.638 889.422 430.666C888.136 430.834 886.958 429.927 886.79 428.641L886.193 424.06C882.621 424.034 879.357 423.601 877.064 423.191L876.57 426.688C876.451 427.534 875.894 428.211 875.161 428.522C874.781 428.684 874.354 428.747 873.916 428.685C872.631 428.504 871.738 427.316 871.919 426.031L872.465 422.163C870.78 421.749 869.101 421.301 867.427 420.811L866.085 423.882C865.834 424.454 865.384 424.876 864.85 425.103C864.277 425.346 863.608 425.362 862.992 425.093C861.803 424.573 861.26 423.189 861.78 422L862.904 419.429C860.349 418.609 857.809 417.76 855.309 416.909C855.068 416.827 854.82 416.744 854.578 416.662L853.177 419.864C852.927 420.437 852.477 420.859 851.943 421.085C851.37 421.329 850.701 421.345 850.083 421.076C848.895 420.555 848.354 419.17 848.873 417.982L850.106 415.162C848.962 414.783 847.816 414.404 846.686 414.05C845.316 413.619 843.898 413.168 842.46 412.707L840.818 416.464C840.568 417.036 840.117 417.459 839.584 417.685C839.011 417.928 838.342 417.944 837.725 417.675C836.536 417.156 835.993 415.771 836.513 414.582L837.971 411.248C835.707 410.502 833.396 409.721 831.053 408.904L829.488 412.486C829.237 413.058 828.787 413.48 828.253 413.707C827.68 413.95 827.011 413.966 826.395 413.697C825.206 413.177 824.663 411.793 825.183 410.604L826.617 407.323C824.374 406.506 822.127 405.655 819.886 404.772C819.854 404.842 819.83 404.915 819.791 404.983L818.025 408.039C817.759 408.497 817.363 408.832 816.91 409.025C816.254 409.303 815.478 409.281 814.815 408.896C813.692 408.247 813.308 406.81 813.956 405.688L815.519 402.984C813.334 402.049 811.231 401.072 809.211 400.051L807.67 402.716C807.405 403.175 807.009 403.51 806.555 403.702C805.899 403.981 805.124 403.959 804.461 403.574C803.338 402.924 802.953 401.488 803.601 400.365L805.066 397.832C803.203 396.775 801.419 395.675 799.708 394.532L798.324 396.745C798.059 397.169 797.681 397.479 797.253 397.661C796.572 397.95 795.764 397.913 795.087 397.491C793.988 396.803 793.655 395.353 794.342 394.254L795.824 391.885C795.84 391.858 795.863 391.838 795.88 391.812C794.299 390.613 792.79 389.372 791.352 388.085L789.452 390.225C789.213 390.495 788.926 390.696 788.615 390.829C787.805 391.172 786.836 391.045 786.135 390.423C785.166 389.561 785.077 388.077 785.938 387.107L787.964 384.825C786.426 383.242 784.975 381.602 783.624 379.895L780.953 381.945C780.792 382.07 780.618 382.17 780.44 382.246C779.478 382.654 778.325 382.38 777.66 381.513C776.869 380.484 777.063 379.009 778.092 378.219L780.852 376.1C780.633 375.777 780.405 375.461 780.192 375.133C779.292 373.752 778.237 371.95 777.323 369.936Z" fill="#B3365B"/>
<path d="M837.231 387.686C837.807 388.093 838.403 388.514 838.796 388.699C840.021 389.28 841.454 389.466 842.969 389.662C844.765 389.895 846.8 390.159 848.712 391.159C850.822 392.262 852.333 394.169 852.755 396.263C853.118 398.062 852.649 399.863 851.434 401.333C850.619 402.32 849.572 403.029 848.414 403.521C845.378 404.81 841.579 404.597 839.187 403.937C835.771 402.993 831.921 400.644 829.38 397.952C827.778 396.255 825.979 392.226 826.768 389.073C827.204 387.33 828.37 386.069 830.049 385.495C832.281 384.748 834.326 385.87 835 386.24C835.803 386.679 836.562 387.215 837.231 387.686ZM836.784 392.945C836.027 392.586 835.296 392.071 834.523 391.526C833.928 391.105 833.312 390.672 832.742 390.359L832.74 390.358C831.834 389.861 831.544 389.949 831.543 389.95C831.514 389.96 831.49 389.967 831.471 389.975C831.395 390.008 831.366 390.049 831.326 390.213C831.014 391.458 832.022 393.906 832.796 394.727C834.759 396.807 837.831 398.689 840.438 399.409C842.937 400.099 846.582 399.829 847.812 398.34C848.128 397.958 848.232 397.604 848.151 397.192C848.012 396.506 847.362 395.754 846.536 395.322C845.366 394.711 843.908 394.521 842.366 394.321C840.638 394.097 838.681 393.844 836.784 392.945Z" fill="#B3365B"/>
<path d="M856.939 390.113C855.347 390.789 853.508 390.046 852.832 388.454C852.156 386.862 852.898 385.023 854.491 384.347C856.083 383.671 857.921 384.414 858.597 386.006C859.273 387.598 858.531 389.437 856.939 390.113Z" fill="#B3365B"/>
<path d="M860.117 408.115C858.525 408.791 856.686 408.049 856.01 406.457C855.334 404.865 856.077 403.026 857.669 402.35C859.261 401.674 861.1 402.416 861.776 404.008C862.452 405.6 861.709 407.439 860.117 408.115Z" fill="#B3365B"/>
<path d="M806.331 374.6C804.739 375.276 802.9 374.533 802.224 372.941C801.548 371.349 802.291 369.511 803.883 368.834C805.475 368.158 807.313 368.901 807.99 370.493C808.666 372.085 807.923 373.924 806.331 374.6Z" fill="#B3365B"/>
<path d="M820.344 396.083C818.752 396.759 816.913 396.016 816.237 394.424C815.561 392.832 816.304 390.993 817.896 390.317C819.488 389.641 821.327 390.384 822.003 391.976C822.679 393.568 821.936 395.406 820.344 396.083Z" fill="#B3365B"/>
<path d="M826.189 375.791C824.597 376.467 822.758 375.725 822.082 374.133C821.406 372.541 822.148 370.702 823.741 370.026C825.333 369.35 827.171 370.092 827.847 371.685C828.523 373.277 827.781 375.115 826.189 375.791Z" fill="#B3365B"/>
<path d="M802.888 366.492C801.694 366.999 800.315 366.443 799.808 365.248L798.048 361.104C797.541 359.91 798.098 358.531 799.292 358.024C800.486 357.517 801.865 358.074 802.372 359.268L804.132 363.412C804.639 364.606 804.082 365.985 802.888 366.492Z" fill="#B3365B"/>
<path d="M807.621 359.222C808.107 358.018 809.475 357.437 810.678 357.923C811.881 358.409 812.463 359.778 811.976 360.981L810.29 365.155C810.047 365.757 809.583 366.203 809.03 366.437C808.477 366.672 807.834 366.696 807.232 366.453C806.029 365.967 805.448 364.598 805.934 363.395L807.621 359.222Z" fill="#B3365B"/>
<path d="M818.8 365.903C819.307 367.097 818.749 368.476 817.556 368.983L813.412 370.742C812.218 371.249 810.839 370.693 810.332 369.499C809.824 368.304 810.382 366.925 811.576 366.418L815.72 364.659C816.913 364.152 818.293 364.708 818.8 365.903Z" fill="#B3365B"/>
<path d="M810.371 373.843C810.856 372.64 812.225 372.059 813.428 372.545L817.603 374.23C818.805 374.716 819.387 376.084 818.901 377.288C818.658 377.889 818.194 378.335 817.641 378.57C817.088 378.805 816.445 378.829 815.844 378.586L811.669 376.901C810.466 376.415 809.885 375.046 810.371 373.843Z" fill="#B3365B"/>
<path d="M807.325 376.942C808.519 376.435 809.898 376.992 810.405 378.186L812.165 382.33C812.672 383.524 812.115 384.903 810.921 385.41C809.727 385.917 808.348 385.361 807.841 384.166L806.081 380.022C805.574 378.828 806.132 377.449 807.325 376.942Z" fill="#B3365B"/>
<path d="M804.279 380.039L802.593 384.213C802.35 384.814 801.886 385.26 801.333 385.495C800.78 385.73 800.137 385.754 799.535 385.511C798.332 385.025 797.751 383.656 798.237 382.454L799.923 378.279C800.409 377.076 801.778 376.495 802.981 376.981C804.184 377.467 804.765 378.836 804.279 380.039Z" fill="#B3365B"/>
<path d="M799.882 373.936C800.389 375.13 799.831 376.509 798.638 377.016L794.494 378.776C793.3 379.283 791.921 378.726 791.414 377.532C790.906 376.337 791.464 374.958 792.658 374.452L796.802 372.692C797.995 372.185 799.375 372.742 799.882 373.936Z" fill="#B3365B"/>
<path d="M794.37 364.848L798.544 366.533C799.747 367.019 800.329 368.388 799.843 369.591C799.6 370.193 799.136 370.639 798.583 370.874C798.03 371.109 797.387 371.132 796.785 370.889L792.611 369.204C791.408 368.719 790.826 367.35 791.312 366.147C791.798 364.944 793.167 364.363 794.37 364.848Z" fill="#B3365B"/>
<path d="M878.912 406.302C877.32 406.978 875.481 406.235 874.805 404.643C874.129 403.051 874.872 401.212 876.464 400.536C878.056 399.86 879.894 400.603 880.571 402.195C881.247 403.787 880.504 405.625 878.912 406.302Z" fill="#B3365B"/>
<path d="M875.469 398.194C874.275 398.701 872.896 398.144 872.389 396.95L871.216 394.187C870.709 392.993 871.266 391.614 872.46 391.107C873.653 390.6 875.033 391.157 875.54 392.351L876.713 395.114C877.22 396.308 876.663 397.687 875.469 398.194Z" fill="#B3365B"/>
<path d="M878.515 395.097L879.64 392.314C880.126 391.112 881.494 390.531 882.697 391.017C883.9 391.503 884.482 392.871 883.996 394.075L882.871 396.857C882.628 397.458 882.165 397.904 881.611 398.139C881.058 398.374 880.415 398.398 879.814 398.155C878.611 397.669 878.029 396.3 878.515 395.097Z" fill="#B3365B"/>
<path d="M882.913 401.2C882.406 400.006 882.963 398.627 884.157 398.12L886.92 396.947C888.114 396.44 889.493 396.996 890 398.191C890.507 399.385 889.95 400.764 888.756 401.271L885.993 402.444C884.799 402.951 883.42 402.394 882.913 401.2Z" fill="#B3365B"/>
<path d="M888.831 409.71C888.277 409.945 887.634 409.968 887.033 409.726L884.25 408.603C883.047 408.117 882.466 406.748 882.952 405.545C883.438 404.342 884.806 403.761 886.009 404.246L888.792 405.369C889.995 405.855 890.576 407.224 890.09 408.427C889.847 409.029 889.384 409.475 888.831 409.71Z" fill="#B3365B"/>
<path d="M879.907 408.644C881.1 408.137 882.48 408.693 882.987 409.888L884.16 412.65C884.667 413.845 884.109 415.223 882.916 415.73C881.722 416.237 880.343 415.681 879.836 414.486L878.663 411.724C878.155 410.53 878.713 409.151 879.907 408.644Z" fill="#B3365B"/>
<path d="M876.86 411.741L875.736 414.523C875.493 415.124 875.029 415.57 874.476 415.805C873.923 416.04 873.28 416.064 872.678 415.821C871.475 415.335 870.894 413.966 871.38 412.763L872.504 409.98C872.991 408.778 874.359 408.197 875.562 408.683C876.765 409.169 877.346 410.538 876.86 411.741Z" fill="#B3365B"/>
<path d="M865.376 408.647C864.868 407.453 865.426 406.074 866.62 405.567L869.383 404.394C870.576 403.887 871.956 404.443 872.463 405.638C872.97 406.832 872.412 408.211 871.219 408.718L868.456 409.891C867.262 410.398 865.883 409.841 865.376 408.647Z" fill="#B3365B"/>
<path d="M871.164 402.575C870.611 402.81 869.968 402.834 869.367 402.592L866.584 401.468C865.38 400.982 864.799 399.614 865.285 398.41C865.771 397.207 867.139 396.627 868.342 397.111L871.125 398.235C872.328 398.721 872.91 400.09 872.424 401.293C872.181 401.894 871.717 402.34 871.164 402.575Z" fill="#B3365B"/>
<path d="M650.942 208.212C650.942 208.212 642.365 208.212 646.264 233.162C650.162 258.113 667.316 286.183 661.858 309.574C661.858 309.574 673.554 289.301 662.638 258.893C651.722 228.484 650.942 214.449 650.942 208.212Z" fill="#68DA1D"/>
<path d="M651.722 273.707C651.722 273.707 645.484 303.336 636.907 311.913C628.331 320.49 634.568 335.304 648.603 335.304C648.603 335.304 643.145 324.388 647.823 311.913C653.281 298.658 651.722 276.826 651.722 273.707Z" fill="#408C0E"/>
<path d="M674.333 282.284C674.333 282.284 665.756 247.977 674.333 250.316C679.791 252.655 671.994 261.232 674.333 282.284Z" fill="#408C0E"/>
<path d="M647.043 250.316C647.043 250.316 660.298 284.623 607.278 304.896C554.258 325.168 550.359 328.287 536.324 349.339C536.324 349.339 548.8 314.252 604.159 295.539C633.788 285.403 642.365 267.47 647.043 250.316Z" fill="#408C0E"/>
<path d="M600.261 360.255C608.838 317.371 620.533 316.591 626.771 312.693C638.467 304.896 626.771 300.997 622.093 304.896C615.075 309.574 600.261 315.032 600.261 360.255Z" fill="#68DA1D"/>
<path d="M681.351 279.945C681.351 279.945 694.606 305.675 676.672 322.829C663.417 335.304 654.841 348.559 654.841 348.559C654.841 348.559 656.4 334.525 673.554 311.913C685.249 295.539 681.351 288.522 681.351 279.945Z" fill="#408C0E"/>
<path d="M693.826 295.539C693.826 295.539 708.641 325.168 734.371 332.185C758.542 339.203 764 354.797 764 354.797C764 354.797 743.728 343.101 734.371 341.542C706.302 335.304 692.267 308.014 693.826 295.539Z" fill="#68DA1D"/>
<path d="M657.959 198.855C657.959 198.855 665.756 187.939 660.298 176.243C654.061 164.548 638.466 152.852 638.466 152.852C638.466 152.852 636.127 167.667 640.026 174.684C644.704 181.701 657.959 191.058 657.959 198.855Z" fill="#408C0E"/>
<path d="M699.284 247.977C699.284 247.977 700.843 233.942 689.927 226.925C679.011 219.907 659.519 217.568 659.519 217.568C659.519 217.568 664.977 231.603 672.774 235.501C680.571 239.4 695.385 240.959 699.284 247.977Z" fill="#408C0E"/>
<path d="M646.264 199.635C646.264 199.635 645.484 185.6 633.788 180.142C622.093 174.684 602.6 174.684 602.6 174.684C602.6 174.684 609.617 187.939 617.414 191.058C625.991 194.956 642.365 193.397 646.264 199.635Z" fill="#68DA1D"/>
<path d="M544.122 175.464C544.122 175.464 543.342 161.429 531.646 155.971C519.951 150.513 500.458 150.513 500.458 150.513C500.458 150.513 507.475 163.768 515.273 166.887C523.07 170.006 539.444 169.226 544.122 175.464Z" fill="#408C0E"/>
<path d="M660.299 205.093C660.299 205.093 673.554 207.432 682.13 197.296C689.928 187.159 694.606 167.667 694.606 167.667C694.606 167.667 680.571 171.565 675.113 178.583C669.655 185.6 668.096 201.974 660.299 205.093Z" fill="#408C0E"/>
<path d="M734.371 222.246C734.371 222.246 729.693 208.991 717.218 207.432C704.742 205.872 685.25 211.33 685.25 211.33C685.25 211.33 696.165 221.467 704.742 222.246C713.319 223.026 728.134 217.568 734.371 222.246Z" fill="#68DA1D"/>
<path d="M664.197 167.667C664.197 167.667 677.452 165.327 681.351 152.852C685.249 140.377 681.351 120.884 681.351 120.884C681.351 120.884 669.655 130.241 667.316 138.038C664.977 145.835 669.655 162.209 664.197 167.667Z" fill="#68DA1D"/>
<path d="M587.785 134.139C587.785 134.139 584.667 147.394 594.023 155.971C604.159 164.548 622.872 170.006 622.872 170.006C622.872 170.006 619.753 155.191 612.736 149.733C605.719 145.055 590.125 141.936 587.785 134.139Z" fill="#408C0E"/>
<path d="M495 190.278C495 190.278 502.017 201.974 515.272 201.194C528.528 200.415 545.681 191.058 545.681 191.058C545.681 191.058 533.206 183.261 524.629 184.041C516.052 184.82 502.017 194.177 495 190.278Z" fill="#68DA1D"/>
<path d="M705.522 170.006C705.522 170.006 718.777 174.684 728.133 166.107C737.49 157.531 745.287 138.818 745.287 138.818C745.287 138.818 730.472 140.377 724.235 146.615C718.777 152.852 713.319 168.446 705.522 170.006Z" fill="#68DA1D"/>
<path d="M689.927 152.852C689.927 152.852 703.183 155.191 711.759 145.055C719.556 134.919 724.235 115.426 724.235 115.426C724.235 115.426 710.2 119.325 704.742 126.342C699.284 134.139 696.945 149.734 689.927 152.852Z" fill="#408C0E"/>
<path d="M647.823 152.072C647.823 152.072 656.4 141.156 650.162 129.461C643.925 117.765 629.11 105.29 629.11 105.29C629.11 105.29 625.991 120.104 630.67 127.122C635.348 135.698 648.603 144.275 647.823 152.072Z" fill="#408C0E"/>
<path d="M617.414 143.496C617.414 143.496 620.533 130.241 611.177 121.664C601.82 113.087 583.107 107.629 583.107 107.629C583.107 107.629 586.226 122.444 593.243 127.902C599.481 133.36 615.075 136.478 617.414 143.496Z" fill="#68DA1D"/>
<path d="M587.006 170.006C587.006 170.006 587.006 155.971 575.31 150.513C563.614 145.055 544.122 145.055 544.122 145.055C544.122 145.055 551.139 158.31 558.936 161.429C566.733 165.328 582.327 163.768 587.006 170.006Z" fill="#68DA1D"/>
<path d="M574.531 210.551C574.531 210.551 565.174 200.414 552.699 204.313C540.223 208.212 525.409 221.467 525.409 221.467C525.409 221.467 539.444 226.925 547.241 223.806C555.038 220.687 567.513 208.212 574.531 210.551Z" fill="#408C0E"/>
<path d="M745.287 184.82C745.287 184.82 735.93 174.684 723.455 177.803C710.98 180.922 696.165 194.177 696.165 194.177C696.165 194.177 710.2 199.635 717.997 197.296C725.794 194.957 737.49 183.261 745.287 184.82Z" fill="#408C0E"/>
<path d="M658.739 124.783C658.739 124.783 671.994 122.443 675.893 109.968C679.791 97.4927 675.893 78 675.893 78C675.893 78 664.197 87.3565 661.858 95.1536C660.298 103.73 664.197 119.325 658.739 124.783Z" fill="#408C0E"/>
<path d="M639.246 210.551C639.246 210.551 631.449 198.855 618.974 200.414C605.719 201.974 589.345 212.11 589.345 212.11C589.345 212.11 601.82 219.907 610.397 218.348C618.974 216.788 632.229 207.432 639.246 210.551Z" fill="#408C0E"/>
<path d="M636.907 221.467C636.907 221.467 623.652 216.788 614.296 226.145C604.939 235.501 597.922 253.435 597.922 253.435C597.922 253.435 612.736 251.096 618.194 244.858C624.432 238.62 629.11 223.026 636.907 221.467Z" fill="#408C0E"/>
<path d="M550.359 229.264C550.359 229.264 557.377 240.96 570.632 240.18C583.887 239.4 600.261 229.264 600.261 229.264C600.261 229.264 587.785 221.467 579.208 222.246C570.632 223.806 557.377 233.162 550.359 229.264Z" fill="#68DA1D"/>
<path d="M602.6 197.296C602.6 197.296 599.481 184.041 587.006 180.142C574.531 177.023 555.038 180.142 555.038 180.142C555.038 180.142 564.394 191.838 572.971 193.397C581.548 194.957 597.142 191.058 602.6 197.296Z" fill="#408C0E"/>
<path d="M554.511 361.394C556.921 368.37 564.558 372.084 571.534 369.674C578.509 367.264 582.224 359.627 579.814 352.651C577.404 345.676 569.767 341.961 562.791 344.371C555.815 346.782 552.101 354.419 554.511 361.394ZM578.232 353.198C580.342 359.302 577.092 365.983 570.987 368.093C564.883 370.202 558.202 366.952 556.093 360.848C553.983 354.743 557.233 348.062 563.337 345.953C569.442 343.844 576.123 347.093 578.232 353.198Z" fill="#EBCACA"/>
<path d="M558.465 360.028C560.122 364.824 565.372 367.378 570.168 365.721C574.964 364.063 577.517 358.813 575.86 354.017C574.203 349.222 568.953 346.668 564.157 348.325C559.362 349.982 556.808 355.232 558.465 360.028ZM574.279 354.564C575.635 358.488 573.545 362.783 569.621 364.139C565.698 365.495 561.402 363.406 560.046 359.482C558.69 355.557 560.78 351.262 564.704 349.906C568.627 348.551 572.923 350.64 574.279 354.564Z" fill="#EBCACA"/>
<path d="M568.011 362.04L567.465 360.459C566.157 360.911 564.725 360.214 564.273 358.906L562.691 359.453C563.445 361.633 565.831 362.793 568.011 362.04Z" fill="#EBCACA"/>
<path d="M540.021 391.184C542.431 398.16 550.068 401.874 557.044 399.464C564.019 397.054 567.734 389.417 565.324 382.441C562.914 375.465 555.277 371.751 548.301 374.161C541.325 376.571 537.611 384.208 540.021 391.184ZM563.742 382.988C565.852 389.092 562.602 395.773 556.497 397.882C550.393 399.992 543.712 396.742 541.603 390.638C539.493 384.533 542.743 377.852 548.847 375.743C554.952 373.633 561.633 376.883 563.742 382.988Z" fill="#EBCACA"/>
<path d="M543.975 389.818C545.632 394.613 550.882 397.167 555.678 395.51C560.474 393.853 563.027 388.603 561.37 383.807C559.713 379.012 554.463 376.458 549.667 378.115C544.872 379.772 542.318 385.022 543.975 389.818ZM559.789 384.354C561.145 388.278 559.055 392.573 555.131 393.929C551.208 395.285 546.912 393.196 545.556 389.271C544.2 385.347 546.29 381.052 550.214 379.696C554.137 378.34 558.433 380.429 559.789 384.354Z" fill="#EBCACA"/>
<path d="M553.521 391.83L552.975 390.249C551.667 390.7 550.235 390.004 549.783 388.696L548.201 389.243C548.955 391.423 551.341 392.583 553.521 391.83Z" fill="#EBCACA"/>
<path d="M570.615 382.383C571.82 385.871 575.638 387.728 579.126 386.523C582.614 385.318 584.471 381.5 583.266 378.012C582.061 374.524 578.242 372.667 574.755 373.872C571.267 375.077 569.41 378.896 570.615 382.383ZM581.685 378.558C582.589 381.175 581.196 384.038 578.58 384.942C575.963 385.846 573.1 384.453 572.196 381.837C571.292 379.22 572.685 376.357 575.301 375.453C577.918 374.549 580.781 375.942 581.685 378.558Z" fill="#EBCACA"/>
<path d="M578.824 383.087L578.277 381.506C576.97 381.958 575.538 381.261 575.086 379.953L573.504 380.5C574.257 382.68 576.644 383.84 578.824 383.087Z" fill="#EBCACA"/>
<path d="M537.302 360.26C538.507 363.747 542.326 365.605 545.813 364.4C549.301 363.194 551.158 359.376 549.953 355.888C548.748 352.4 544.93 350.543 541.442 351.748C537.954 352.953 536.097 356.772 537.302 360.26ZM548.372 356.435C549.276 359.051 547.883 361.914 545.267 362.818C542.65 363.722 539.787 362.33 538.883 359.713C537.979 357.097 539.372 354.234 541.988 353.33C544.605 352.426 547.468 353.818 548.372 356.435Z" fill="#EBCACA"/>
<path d="M545.511 360.963L544.965 359.382C543.657 359.834 542.225 359.137 541.773 357.83L540.191 358.376C540.945 360.556 543.331 361.717 545.511 360.963Z" fill="#EBCACA"/>
<path d="M969.362 413.496C977.366 417.612 980.576 427.251 976.459 435.256C972.343 443.26 962.563 446.397 954.559 442.28C946.555 438.164 943.559 428.457 947.675 420.453C951.791 412.448 961.358 409.38 969.362 413.496V413.496ZM938.159 406.506C941.529 408.239 942.825 412.28 941.092 415.65C939.359 419.02 935.39 420.176 932.02 418.443C928.65 416.71 927.281 412.809 929.014 409.439C930.747 406.069 934.789 404.772 938.159 406.506ZM962.546 385.666C967.881 388.409 969.858 394.929 967.114 400.264C964.37 405.599 957.991 407.648 952.653 404.903C947.315 402.158 945.269 395.78 948.014 390.442C950.76 385.104 957.208 382.92 962.546 385.666Z" fill="#EBCACA"/>
<path d="M340.109 405.795C339.967 405.525 339.753 405.299 339.491 405.141C339.23 404.984 338.93 404.901 338.625 404.901H326.717L333.112 383.153C333.223 382.774 333.197 382.367 333.039 382.005C332.88 381.643 332.599 381.349 332.245 381.174C331.89 380.999 331.485 380.954 331.102 381.048C330.718 381.142 330.379 381.368 330.146 381.687L304.738 416.394C304.555 416.644 304.444 416.94 304.419 417.249C304.394 417.559 304.455 417.869 304.595 418.145C304.736 418.422 304.95 418.654 305.214 418.817C305.478 418.979 305.783 419.065 306.093 419.065H319.274L312.678 441.855C312.567 442.238 312.596 442.649 312.761 443.013C312.926 443.377 313.215 443.67 313.576 443.84C313.938 444.01 314.348 444.046 314.733 443.941C315.119 443.836 315.454 443.596 315.679 443.266L340.013 407.524C340.185 407.272 340.285 406.978 340.302 406.673C340.319 406.368 340.252 406.064 340.109 405.795ZM318.834 432.666L323.121 417.853C323.193 417.603 323.207 417.339 323.16 417.083C323.113 416.827 323.007 416.585 322.85 416.377C322.694 416.169 322.491 416 322.258 415.883C322.025 415.767 321.768 415.707 321.507 415.707H309.403L327.179 391.425L322.863 406.106C322.789 406.356 322.775 406.62 322.821 406.877C322.867 407.134 322.973 407.377 323.129 407.586C323.286 407.795 323.489 407.965 323.722 408.081C323.956 408.198 324.213 408.259 324.474 408.259H335.451L318.834 432.666Z" fill="#EBCACA"/>
<path d="M301.269 412.421C301.269 411.928 301.074 411.455 300.725 411.106C300.376 410.758 299.903 410.562 299.41 410.562H295.859C295.366 410.562 294.893 410.758 294.545 411.106C294.196 411.455 294 411.928 294 412.421C294 412.914 294.196 413.387 294.545 413.735C294.893 414.084 295.366 414.28 295.859 414.28H299.41C299.655 414.28 299.896 414.232 300.122 414.138C300.347 414.045 300.552 413.908 300.725 413.735C300.898 413.563 301.035 413.358 301.128 413.132C301.221 412.907 301.27 412.665 301.269 412.421Z" fill="#EBCACA"/>
<path d="M348.859 410.562H345.307C344.814 410.562 344.341 410.758 343.993 411.106C343.644 411.455 343.448 411.928 343.448 412.421C343.448 412.914 343.644 413.387 343.993 413.735C344.341 414.084 344.814 414.28 345.307 414.28H348.859C349.352 414.28 349.825 414.084 350.173 413.735C350.522 413.387 350.718 412.914 350.718 412.421C350.718 411.928 350.522 411.455 350.173 411.106C349.825 410.758 349.352 410.562 348.859 410.562V410.562Z" fill="#EBCACA"/>
<path d="M304.714 397.361C305.061 397.696 305.524 397.883 306.007 397.883C306.489 397.883 306.952 397.696 307.299 397.361C307.634 397.014 307.821 396.551 307.821 396.069C307.821 395.586 307.634 395.123 307.299 394.776L302.279 389.738C301.921 389.469 301.478 389.339 301.031 389.37C300.584 389.402 300.164 389.593 299.848 389.91C299.531 390.227 299.339 390.647 299.308 391.094C299.276 391.54 299.407 391.983 299.676 392.341L304.714 397.361Z" fill="#EBCACA"/>
<path d="M306.814 427.481C306.505 427.269 306.139 427.156 305.765 427.156C305.39 427.156 305.024 427.269 304.715 427.481L299.676 432.501C299.335 432.848 299.145 433.315 299.145 433.802C299.145 434.289 299.335 434.756 299.676 435.103C300.024 435.444 300.491 435.635 300.977 435.635C301.464 435.635 301.931 435.444 302.279 435.103L307.299 430.065C307.577 429.658 307.683 429.157 307.592 428.672C307.501 428.188 307.221 427.759 306.814 427.481V427.481Z" fill="#EBCACA"/>
<path d="M340.003 427.481C339.645 427.236 339.213 427.124 338.781 427.164C338.35 427.205 337.946 427.394 337.639 427.701C337.333 428.007 337.143 428.411 337.103 428.843C337.062 429.275 337.174 429.707 337.419 430.065L342.439 435.103C342.786 435.444 343.253 435.635 343.74 435.635C344.227 435.635 344.694 435.444 345.041 435.103C345.382 434.756 345.573 434.289 345.573 433.802C345.573 433.315 345.382 432.848 345.041 432.501L340.003 427.481Z" fill="#EBCACA"/>
<path d="M340.003 397.361L345.042 392.341C345.311 391.983 345.441 391.54 345.41 391.093C345.378 390.647 345.186 390.226 344.87 389.91C344.553 389.593 344.133 389.402 343.686 389.37C343.24 389.338 342.797 389.469 342.439 389.738L337.419 394.777C337.083 395.123 336.896 395.587 336.896 396.069C336.896 396.551 337.083 397.015 337.419 397.361C337.765 397.696 338.229 397.884 338.711 397.883C339.193 397.883 339.656 397.696 340.003 397.361V397.361Z" fill="#EBCACA"/>
<path d="M370.724 397.762C370.897 397.669 370.554 397.83 370.724 397.762V397.762Z" fill="#B3365B"/>
<path d="M381.752 424.894C381.583 424.964 381.938 424.841 381.752 424.894V424.894Z" fill="#B3365B"/>
<path d="M382.304 425.621L477.504 386.956C477.287 386.335 476.486 384.326 475.4 381.638L440.762 395.715C440.627 395.77 440.474 395.767 440.339 395.71L431.681 392.055L421.347 396.254L418.319 403.427C418.614 403.655 418.873 403.931 419.024 404.302C419.478 405.417 418.942 406.687 417.825 407.142C416.71 407.595 415.439 407.058 414.985 405.943C414.825 405.547 414.825 405.139 414.897 404.747L412.85 403.791C412.629 404.058 412.363 404.292 412.018 404.432C410.901 404.887 409.632 404.349 409.179 403.232C408.725 402.117 409.261 400.847 410.378 400.393C411.494 399.94 412.764 400.476 413.217 401.592C413.378 401.987 413.378 402.394 413.306 402.786L415.353 403.743C415.574 403.475 415.84 403.242 416.184 403.102C416.556 402.95 416.935 402.945 417.305 402.997L420.421 395.616C420.478 395.482 420.586 395.373 420.721 395.318L431.478 390.948C431.613 390.893 431.765 390.895 431.9 390.952L440.558 394.607L474.986 380.615C474.411 379.197 473.775 377.635 473.11 376.009L441.602 388.812C441.466 388.866 441.311 388.865 441.176 388.806L425.165 381.892L411.974 387.252C412.094 388.205 411.606 389.158 410.672 389.535C410.321 389.679 409.961 389.693 409.61 389.655L408.741 391.714C409.105 391.947 409.426 392.258 409.602 392.692C410.053 393.807 409.518 395.077 408.404 395.53C407.971 395.706 407.525 395.695 407.1 395.596L406.124 397.908C406.455 398.141 406.745 398.434 406.908 398.835C407.363 399.949 406.825 401.223 405.709 401.676C405.308 401.839 404.895 401.835 404.498 401.76L403.587 403.919C403.912 404.152 404.202 404.443 404.364 404.842C404.816 405.954 404.28 407.225 403.165 407.681C402.766 407.844 402.356 407.839 401.961 407.766L400.93 410.207C401.225 410.435 401.486 410.711 401.637 411.081C402.088 412.199 401.554 413.471 400.437 413.922C399.324 414.377 398.051 413.84 397.597 412.722C397.448 412.357 397.44 411.985 397.49 411.618L395.065 410.613C394.837 410.91 394.558 411.175 394.182 411.327C393.068 411.78 391.798 411.244 391.342 410.128C390.891 409.011 391.426 407.743 392.541 407.288C393.659 406.835 394.929 407.371 395.381 408.487C395.53 408.854 395.539 409.228 395.489 409.595L397.913 410.6C398.141 410.3 398.421 410.034 398.795 409.882C399.168 409.732 399.546 409.726 399.916 409.779L400.96 407.306C400.695 407.086 400.464 406.823 400.326 406.483C399.872 405.363 400.407 404.095 401.525 403.642C401.866 403.502 402.217 403.483 402.56 403.519L403.498 401.297C403.237 401.078 403.009 400.815 402.871 400.477C402.418 399.36 402.954 398.091 404.071 397.636C404.409 397.498 404.757 397.478 405.096 397.511L406.114 395.101C405.886 394.889 405.69 394.638 405.565 394.33C405.109 393.214 405.645 391.944 406.763 391.491C407.071 391.366 407.388 391.331 407.699 391.349L408.587 389.246C408.27 389.016 407.992 388.731 407.833 388.34C407.379 387.224 407.916 385.951 409.033 385.498C409.968 385.118 410.981 385.459 411.562 386.226L424.965 380.78C425.101 380.726 425.256 380.728 425.391 380.787L441.401 387.702L472.692 374.987C469.73 367.745 466.402 359.679 465.782 358.171L370.616 396.854C365.385 399.452 356.934 406.745 361.268 417.41C365.599 428.073 376.746 427.406 382.304 425.621ZM376.147 403.565C375.031 404.02 373.759 403.483 373.306 402.365C372.854 401.253 373.389 399.981 374.504 399.527C375.621 399.073 376.893 399.611 377.345 400.726C377.507 401.122 377.506 401.529 377.434 401.921L379.482 402.875C379.703 402.608 379.968 402.376 380.312 402.236C381.429 401.783 382.7 402.319 383.154 403.436C383.607 404.552 383.072 405.82 381.955 406.275C380.839 406.727 379.567 406.192 379.113 405.077C378.952 404.68 378.954 404.272 379.026 403.88L376.978 402.925C376.757 403.193 376.491 403.426 376.147 403.565ZM380.46 419.969C380.007 418.851 380.542 417.579 381.656 417.128C382.026 416.977 382.403 416.971 382.772 417.022L383.63 414.979C383.247 414.746 382.914 414.425 382.731 413.976C382.279 412.86 382.815 411.589 383.93 411.136C384.376 410.954 384.835 410.969 385.267 411.076L386.288 408.646C385.878 408.412 385.521 408.075 385.331 407.604C384.876 406.485 385.413 405.214 386.53 404.764C386.997 404.574 387.484 404.591 387.936 404.718L388.759 402.757C388.427 402.525 388.132 402.23 387.969 401.825C387.515 400.709 388.052 399.438 389.168 398.984C389.569 398.821 389.982 398.825 390.377 398.9L391.404 396.457C391.108 396.229 390.846 395.951 390.695 395.58C390.242 394.464 390.776 393.194 391.894 392.741C393.009 392.286 394.28 392.823 394.734 393.939C394.875 394.286 394.89 394.64 394.852 394.988L397.28 396.031C397.507 395.741 397.782 395.483 398.149 395.334C399.264 394.882 400.535 395.419 400.99 396.534C401.443 397.651 400.906 398.923 399.79 399.375C398.675 399.83 397.403 399.292 396.951 398.175C396.797 397.799 396.794 397.417 396.847 397.045L394.449 396.015C394.218 396.336 393.929 396.62 393.535 396.779C393.164 396.93 392.788 396.936 392.418 396.885L391.378 399.361C391.64 399.582 391.869 399.844 392.006 400.182C392.459 401.298 391.922 402.569 390.807 403.024C390.471 403.16 390.126 403.182 389.789 403.15L388.904 405.259C389.097 405.456 389.259 405.689 389.37 405.961C389.821 407.075 389.283 408.349 388.167 408.803C387.899 408.912 387.623 408.955 387.353 408.956L386.248 411.584C386.466 411.791 386.649 412.039 386.769 412.335C387.221 413.449 386.684 414.721 385.57 415.176C385.276 415.295 384.976 415.337 384.678 415.327L383.788 417.449C384.085 417.678 384.347 417.955 384.497 418.327C384.953 419.442 384.415 420.712 383.297 421.168C382.183 421.621 380.914 421.084 380.46 419.969Z" fill="#B3365B"/>
<path d="M537.061 365.989L523.244 331.979L491.482 348.393L502.634 375.837L537.061 365.989ZM517.853 357.234C517.985 357.558 517.828 357.926 517.504 358.06C517.18 358.19 516.812 358.035 516.68 357.712C516.548 357.387 516.704 357.018 517.028 356.887C517.351 356.755 517.723 356.91 517.853 357.234ZM517.695 339.033C517.415 338.343 517.746 337.555 518.438 337.273C519.128 336.993 519.916 337.326 520.198 338.016C520.478 338.708 520.145 339.494 519.455 339.776C518.762 340.057 517.977 339.726 517.695 339.033ZM516.88 342.933C517.441 342.703 518.081 342.975 518.308 343.536C518.535 344.097 518.268 344.735 517.707 344.964C517.144 345.193 516.505 344.921 516.277 344.361C516.049 343.801 516.319 343.162 516.88 342.933ZM509.468 342.829C509.243 342.276 509.509 341.646 510.062 341.422C510.612 341.197 511.246 341.463 511.47 342.016C511.695 342.568 511.428 343.2 510.875 343.426C510.322 343.648 509.693 343.383 509.468 342.829ZM522.447 350.729C522.797 350.588 523.197 350.757 523.339 351.105C523.48 351.454 523.312 351.853 522.962 351.996C522.613 352.136 522.215 351.968 522.071 351.62C521.93 351.27 522.097 350.87 522.447 350.729ZM514.302 348.224C514.891 347.985 515.561 348.268 515.799 348.855C516.038 349.444 515.755 350.114 515.166 350.353C514.58 350.591 513.908 350.308 513.67 349.721C513.432 349.13 513.714 348.461 514.302 348.224ZM505.975 348.548C505.694 347.857 506.027 347.068 506.716 346.788C507.407 346.507 508.195 346.839 508.476 347.531C508.757 348.222 508.426 349.01 507.733 349.29C507.044 349.574 506.254 349.239 505.975 348.548ZM508.054 350.08C508.966 349.709 510.006 350.148 510.375 351.06C510.745 351.973 510.308 353.01 509.396 353.38C508.485 353.75 507.444 353.312 507.075 352.4C506.704 351.487 507.143 350.45 508.054 350.08ZM493.551 350.369C493.27 349.678 493.603 348.89 494.294 348.607C494.985 348.328 495.773 348.661 496.052 349.351C496.335 350.043 496.002 350.831 495.31 351.11C494.62 351.391 493.832 351.059 493.551 350.369ZM497.586 353.141C497.437 352.774 497.516 352.385 497.735 352.088C497.637 351.962 497.531 351.84 497.468 351.685C497.104 350.787 497.536 349.764 498.433 349.4C499.33 349.034 500.356 349.467 500.72 350.364C501.086 351.262 500.654 352.285 499.755 352.651C499.733 352.66 499.708 352.656 499.685 352.663C499.712 353.12 499.464 353.561 499.017 353.743C498.454 353.972 497.814 353.701 497.586 353.141ZM510.359 364.263C510.215 363.905 510.391 363.497 510.754 363.351C511.119 363.203 511.53 363.373 511.675 363.73C511.819 364.088 511.645 364.497 511.28 364.645C510.917 364.792 510.504 364.621 510.359 364.263ZM501.467 361.524C502.027 361.296 502.666 361.566 502.894 362.126C503.122 362.689 502.852 363.328 502.29 363.556C501.729 363.785 501.09 363.515 500.864 362.952C500.635 362.392 500.904 361.754 501.467 361.524Z" fill="#B3365B"/>
<path d="M357.565 405.452C359.727 400.331 364.176 396.57 367.935 394.479L367.913 394.426L369.921 393.48L369.953 393.536L503.874 339.098L510.177 334.089C510.654 333.71 511.349 333.789 511.728 334.267C512.108 334.743 512.028 335.438 511.551 335.818L504.851 341.085L369.861 395.956C363.921 398.933 355.214 406.869 359.748 418.029C364.289 429.205 376.102 428.797 382.395 426.79L517.543 371.897L525.869 371.059C526.476 370.998 527.017 371.44 527.078 372.047C527.14 372.652 526.697 373.194 526.09 373.256L518.08 374.062L384.192 428.441L384.21 428.502L382.133 429.227L382.108 429.174C374.932 431.14 362.63 430.987 357.701 418.859C355.621 413.735 355.974 409.225 357.565 405.452Z" fill="#B3365B"/>
<path d="M188.28 530V446H201.12L237.84 507.32H231.12L267.24 446H280.08L280.2 530H265.44L265.32 469.16H268.44L237.72 520.4H230.76L199.56 469.16H203.16V530H188.28ZM331.569 530.84C324.449 530.84 318.209 529.44 312.849 526.64C307.569 523.76 303.449 519.84 300.489 514.88C297.609 509.92 296.169 504.28 296.169 497.96C296.169 491.56 297.569 485.92 300.369 481.04C303.249 476.08 307.169 472.2 312.129 469.4C317.169 466.6 322.889 465.2 329.289 465.2C335.529 465.2 341.089 466.56 345.969 469.28C350.849 472 354.689 475.84 357.489 480.8C360.289 485.76 361.689 491.6 361.689 498.32C361.689 498.96 361.649 499.68 361.569 500.48C361.569 501.28 361.529 502.04 361.449 502.76H308.049V492.8H353.529L347.649 495.92C347.729 492.24 346.969 489 345.369 486.2C343.769 483.4 341.569 481.2 338.769 479.6C336.049 478 332.889 477.2 329.289 477.2C325.609 477.2 322.369 478 319.569 479.6C316.849 481.2 314.689 483.44 313.089 486.32C311.569 489.12 310.809 492.44 310.809 496.28V498.68C310.809 502.52 311.689 505.92 313.449 508.88C315.209 511.84 317.689 514.12 320.889 515.72C324.089 517.32 327.769 518.12 331.929 518.12C335.529 518.12 338.769 517.56 341.649 516.44C344.529 515.32 347.089 513.56 349.329 511.16L357.369 520.4C354.489 523.76 350.849 526.36 346.449 528.2C342.129 529.96 337.169 530.84 331.569 530.84ZM456.978 465.2C462.098 465.2 466.618 466.2 470.538 468.2C474.538 470.2 477.658 473.28 479.898 477.44C482.138 481.52 483.258 486.8 483.258 493.28V530H468.258V495.2C468.258 489.52 467.018 485.28 464.538 482.48C462.058 479.68 458.498 478.28 453.858 478.28C450.578 478.28 447.658 479 445.098 480.44C442.618 481.88 440.658 484 439.218 486.8C437.858 489.6 437.178 493.16 437.178 497.48V530H422.178V495.2C422.178 489.52 420.938 485.28 418.458 482.48C415.978 479.68 412.418 478.28 407.778 478.28C404.498 478.28 401.578 479 399.018 480.44C396.538 481.88 394.578 484 393.138 486.8C391.778 489.6 391.098 493.16 391.098 497.48V530H376.098V465.92H390.378V482.96L387.858 477.92C390.018 473.76 393.138 470.6 397.218 468.44C401.378 466.28 406.098 465.2 411.378 465.2C417.378 465.2 422.578 466.68 426.978 469.64C431.458 472.6 434.418 477.08 435.858 483.08L429.978 481.04C432.058 476.24 435.498 472.4 440.298 469.52C445.098 466.64 450.658 465.2 456.978 465.2ZM499.186 502.88V490.4H532.186V502.88H499.186ZM564.318 484.64H606.198V497.84H564.318V484.64ZM565.638 530H550.038V446H611.358V459.08H565.638V530ZM662.375 530V517.04L661.535 514.28V491.6C661.535 487.2 660.215 483.8 657.575 481.4C654.935 478.92 650.935 477.68 645.575 477.68C641.975 477.68 638.415 478.24 634.895 479.36C631.455 480.48 628.535 482.04 626.135 484.04L620.255 473.12C623.695 470.48 627.775 468.52 632.495 467.24C637.295 465.88 642.255 465.2 647.375 465.2C656.655 465.2 663.815 467.44 668.855 471.92C673.975 476.32 676.535 483.16 676.535 492.44V530H662.375ZM642.215 530.84C637.415 530.84 633.215 530.04 629.615 528.44C626.015 526.76 623.215 524.48 621.215 521.6C619.295 518.64 618.335 515.32 618.335 511.64C618.335 508.04 619.175 504.8 620.855 501.92C622.615 499.04 625.455 496.76 629.375 495.08C633.295 493.4 638.495 492.56 644.975 492.56H663.575V502.52H646.055C640.935 502.52 637.495 503.36 635.735 505.04C633.975 506.64 633.095 508.64 633.095 511.04C633.095 513.76 634.175 515.92 636.335 517.52C638.495 519.12 641.495 519.92 645.335 519.92C649.015 519.92 652.295 519.08 655.175 517.4C658.135 515.72 660.255 513.24 661.535 509.96L664.055 518.96C662.615 522.72 660.015 525.64 656.255 527.72C652.575 529.8 647.895 530.84 642.215 530.84ZM725.303 530.84C718.583 530.84 712.583 529.44 707.303 526.64C702.103 523.76 698.023 519.84 695.063 514.88C692.103 509.92 690.623 504.28 690.623 497.96C690.623 491.56 692.103 485.92 695.063 481.04C698.023 476.08 702.103 472.2 707.303 469.4C712.583 466.6 718.583 465.2 725.303 465.2C731.543 465.2 737.023 466.48 741.743 469.04C746.543 471.52 750.183 475.2 752.663 480.08L741.143 486.8C739.223 483.76 736.863 481.52 734.063 480.08C731.343 478.64 728.383 477.92 725.183 477.92C721.503 477.92 718.183 478.72 715.223 480.32C712.263 481.92 709.943 484.24 708.263 487.28C706.583 490.24 705.743 493.8 705.743 497.96C705.743 502.12 706.583 505.72 708.263 508.76C709.943 511.72 712.263 514 715.223 515.6C718.183 517.2 721.503 518 725.183 518C728.383 518 731.343 517.28 734.063 515.84C736.863 514.4 739.223 512.16 741.143 509.12L752.663 515.84C750.183 520.64 746.543 524.36 741.743 527C737.023 529.56 731.543 530.84 725.303 530.84ZM794.812 530.84C787.692 530.84 781.452 529.44 776.092 526.64C770.812 523.76 766.692 519.84 763.732 514.88C760.852 509.92 759.412 504.28 759.412 497.96C759.412 491.56 760.812 485.92 763.612 481.04C766.492 476.08 770.412 472.2 775.372 469.4C780.412 466.6 786.132 465.2 792.532 465.2C798.772 465.2 804.332 466.56 809.212 469.28C814.092 472 817.932 475.84 820.732 480.8C823.532 485.76 824.932 491.6 824.932 498.32C824.932 498.96 824.892 499.68 824.812 500.48C824.812 501.28 824.772 502.04 824.692 502.76H771.292V492.8H816.772L810.892 495.92C810.972 492.24 810.212 489 808.612 486.2C807.012 483.4 804.812 481.2 802.012 479.6C799.292 478 796.132 477.2 792.532 477.2C788.852 477.2 785.612 478 782.812 479.6C780.092 481.2 777.932 483.44 776.332 486.32C774.812 489.12 774.052 492.44 774.052 496.28V498.68C774.052 502.52 774.932 505.92 776.692 508.88C778.452 511.84 780.932 514.12 784.132 515.72C787.332 517.32 791.012 518.12 795.172 518.12C798.772 518.12 802.012 517.56 804.892 516.44C807.772 515.32 810.332 513.56 812.572 511.16L820.612 520.4C817.732 523.76 814.092 526.36 809.692 528.2C805.372 529.96 800.412 530.84 794.812 530.84ZM873.944 530V446H889.544V516.8H933.464V530H873.944ZM983.937 530V517.04L983.097 514.28V491.6C983.097 487.2 981.777 483.8 979.137 481.4C976.497 478.92 972.497 477.68 967.137 477.68C963.537 477.68 959.977 478.24 956.457 479.36C953.017 480.48 950.097 482.04 947.697 484.04L941.817 473.12C945.257 470.48 949.337 468.52 954.057 467.24C958.857 465.88 963.817 465.2 968.937 465.2C978.217 465.2 985.377 467.44 990.417 471.92C995.537 476.32 998.097 483.16 998.097 492.44V530H983.937ZM963.777 530.84C958.977 530.84 954.777 530.04 951.177 528.44C947.577 526.76 944.777 524.48 942.777 521.6C940.857 518.64 939.897 515.32 939.897 511.64C939.897 508.04 940.737 504.8 942.417 501.92C944.177 499.04 947.017 496.76 950.937 495.08C954.857 493.4 960.057 492.56 966.537 492.56H985.137V502.52H967.617C962.497 502.52 959.057 503.36 957.297 505.04C955.537 506.64 954.657 508.64 954.657 511.04C954.657 513.76 955.737 515.92 957.897 517.52C960.057 519.12 963.057 519.92 966.897 519.92C970.577 519.92 973.857 519.08 976.737 517.4C979.697 515.72 981.817 513.24 983.097 509.96L985.617 518.96C984.177 522.72 981.577 525.64 977.817 527.72C974.137 529.8 969.457 530.84 963.777 530.84ZM1052.87 530.84C1047.43 530.84 1042.59 529.64 1038.35 527.24C1034.11 524.84 1030.75 521.24 1028.27 516.44C1025.87 511.56 1024.67 505.4 1024.67 497.96C1024.67 490.44 1025.91 484.28 1028.39 479.48C1030.95 474.68 1034.35 471.12 1038.59 468.8C1042.91 466.4 1047.67 465.2 1052.87 465.2C1059.19 465.2 1064.75 466.56 1069.55 469.28C1074.43 472 1078.27 475.8 1081.07 480.68C1083.95 485.56 1085.39 491.32 1085.39 497.96C1085.39 504.6 1083.95 510.36 1081.07 515.24C1078.27 520.12 1074.43 523.96 1069.55 526.76C1064.75 529.48 1059.19 530.84 1052.87 530.84ZM1017.35 530V440.96H1032.35V480.8L1031.15 497.84L1031.63 514.88V530H1017.35ZM1051.19 518C1054.79 518 1057.99 517.2 1060.79 515.6C1063.67 514 1065.95 511.68 1067.63 508.64C1069.31 505.6 1070.15 502.04 1070.15 497.96C1070.15 493.8 1069.31 490.24 1067.63 487.28C1065.95 484.24 1063.67 481.92 1060.79 480.32C1057.99 478.72 1054.79 477.92 1051.19 477.92C1047.59 477.92 1044.35 478.72 1041.47 480.32C1038.59 481.92 1036.31 484.24 1034.63 487.28C1032.95 490.24 1032.11 493.8 1032.11 497.96C1032.11 502.04 1032.95 505.6 1034.63 508.64C1036.31 511.68 1038.59 514 1041.47 515.6C1044.35 517.2 1047.59 518 1051.19 518Z" fill="white"/>
</svg>
