<svg width="1295" height="618" viewBox="0 0 1295 618" fill="none" xmlns="http://www.w3.org/2000/svg">
<rect width="1295" height="618" fill="#161E26"/>
<path d="M786.323 359.936L783.393 361.426C783.344 361.451 783.294 361.474 783.243 361.495C782.117 361.973 780.798 361.503 780.235 360.397C779.646 359.241 780.107 357.826 781.263 357.238L784.439 355.622C784.534 355.574 784.633 355.543 784.731 355.509C784.099 353.036 783.91 350.465 784.584 348.073L781.414 346.353C780.274 345.735 779.851 344.309 780.468 343.168C781.088 342.029 782.515 341.606 783.654 342.224L786.901 343.985C788.252 342.539 790.085 341.439 792.387 340.694L791.735 337.458C791.48 336.184 792.31 334.943 793.574 334.691C794.846 334.434 796.084 335.257 796.341 336.529L796.983 339.711C799.294 339.348 801.643 339.097 804.034 338.991C804.03 338.941 804.018 338.895 804.017 338.845L803.965 335.217C803.946 333.92 804.983 332.857 806.28 332.834C807.578 332.816 808.644 333.852 808.662 335.15L808.714 338.778C808.715 338.838 808.693 338.892 808.69 338.952C809.838 338.98 810.987 339.013 812.146 339.099C813.159 339.174 814.181 339.278 815.211 339.403C815.214 339.283 815.217 339.162 815.238 339.04L815.801 335.859C816.028 334.579 817.249 333.729 818.525 333.955C819.802 334.181 820.654 335.4 820.428 336.677L819.865 339.858C819.848 339.953 819.809 340.037 819.781 340.126C821.67 340.481 823.59 340.901 825.571 341.423C825.573 341.166 825.592 340.905 825.683 340.648L826.621 338.017C827.057 336.794 828.402 336.158 829.622 336.593C830.844 337.029 831.482 338.372 831.046 339.594L830.108 342.225C830.05 342.387 829.976 342.539 829.889 342.68C831.827 343.285 833.817 343.965 835.875 344.728L837.159 341.487C837.636 340.281 839.004 339.691 840.208 340.169C841.415 340.647 842.004 342.012 841.526 343.218L840.254 346.429C840.333 346.461 840.407 346.488 840.486 346.52L841.402 346.893C842.139 347.192 842.881 347.497 843.622 347.811L844.895 345.474C845.514 344.335 846.942 343.915 848.08 344.535C849.22 345.155 849.64 346.583 849.019 347.722L847.849 349.871C849.001 350.518 850.13 351.22 851.187 352.08C852.193 352.899 852.346 354.379 851.526 355.385C850.71 356.39 849.228 356.542 848.222 355.724C845.79 353.744 842.801 352.531 839.635 351.246L838.708 350.869C828.344 346.631 819.792 344.38 811.797 343.785C806.267 343.372 800.863 343.668 795.737 344.66C792.342 345.322 790.189 346.673 789.335 348.688C788.04 351.743 789.458 356.932 793.128 362.57C800.642 374.106 812.152 382.914 828.318 389.492C838.129 393.484 848.37 396.826 857.096 399.567C859.999 400.48 862.959 401.488 865.821 402.462C872.236 404.645 878.869 406.902 885.395 408.278C890.474 409.347 907.369 412.036 911.654 401.713C914.213 395.542 909.578 389.039 904.831 385.345C898.934 380.757 891.655 377.967 884.616 375.268C882.986 374.643 881.361 374.02 879.756 373.378C871.481 370.064 862.536 367.09 853.207 367.764C849.985 367.997 845.405 367.988 842.858 365.241C841.894 364.199 840.841 362.316 841.297 359.258C841.489 357.975 842.684 357.092 843.968 357.282C845.25 357.473 846.135 358.669 845.944 359.952C845.724 361.421 846.161 361.892 846.305 362.047C846.793 362.574 848.294 363.409 852.869 363.078C854.287 362.976 855.689 362.962 857.08 362.999C857.082 362.967 857.077 362.936 857.08 362.904L857.45 358.903C857.568 357.611 858.717 356.661 860.005 356.78C861.297 356.9 862.248 358.044 862.127 359.336L861.756 363.338C861.755 363.351 861.749 363.363 861.747 363.376C864.532 363.729 867.258 364.301 869.926 365.031L870.667 361.852C870.963 360.589 872.225 359.801 873.489 360.098C874.752 360.392 875.537 361.655 875.243 362.918L874.433 366.393C876.84 367.202 879.199 368.094 881.502 369.016C881.759 369.118 882.022 369.216 882.279 369.318L882.977 366.326C883.27 365.064 884.536 364.277 885.798 364.573C887.061 364.868 887.846 366.13 887.551 367.394L886.701 371.036C889.192 371.992 891.705 372.965 894.193 374.028L896.051 370.636C896.675 369.499 898.103 369.082 899.241 369.704C900.378 370.328 900.795 371.755 900.173 372.893L898.474 375.994C901.217 377.341 903.876 378.871 906.388 380.676L909.528 377.443C910.439 376.509 911.922 376.491 912.851 377.395C913.781 378.299 913.803 379.786 912.899 380.717L910.039 383.66C911.688 385.256 913.212 387.123 914.425 389.169L918.26 387.696C919.47 387.231 920.83 387.836 921.294 389.047C921.749 390.232 921.181 391.558 920.021 392.05C919.996 392.061 919.97 392.071 919.943 392.082L916.353 393.461C917.144 396.021 917.34 398.741 916.644 401.5L920.423 403.017C921.627 403.5 922.211 404.868 921.727 406.073C921.485 406.676 921.02 407.124 920.466 407.359C919.914 407.593 919.273 407.618 918.673 407.377L914.787 405.817C913.726 407.516 912.407 408.891 910.903 409.988L912.893 413.142C913.585 414.239 913.257 415.69 912.161 416.382C912.05 416.451 911.937 416.51 911.822 416.559C910.78 417.001 909.544 416.636 908.92 415.649L906.758 412.222C904.578 413.07 902.241 413.572 899.902 413.83L900.449 418.033C900.588 419.103 899.985 420.097 899.039 420.499C898.846 420.581 898.64 420.638 898.422 420.666C897.136 420.834 895.958 419.927 895.79 418.641L895.193 414.06C891.621 414.034 888.357 413.601 886.064 413.191L885.57 416.688C885.451 417.534 884.894 418.211 884.161 418.522C883.781 418.684 883.354 418.747 882.916 418.685C881.631 418.504 880.738 417.316 880.919 416.031L881.465 412.163C879.78 411.749 878.101 411.301 876.427 410.811L875.085 413.882C874.834 414.454 874.384 414.876 873.85 415.103C873.277 415.346 872.608 415.362 871.992 415.093C870.803 414.573 870.26 413.189 870.78 412L871.904 409.429C869.349 408.609 866.809 407.76 864.309 406.909C864.068 406.827 863.82 406.744 863.578 406.662L862.177 409.864C861.927 410.437 861.477 410.859 860.943 411.085C860.37 411.329 859.701 411.345 859.083 411.076C857.895 410.555 857.354 409.17 857.873 407.982L859.106 405.162C857.962 404.783 856.816 404.404 855.686 404.05C854.316 403.619 852.898 403.168 851.46 402.707L849.818 406.464C849.568 407.036 849.117 407.459 848.584 407.685C848.011 407.928 847.342 407.944 846.725 407.675C845.536 407.156 844.993 405.771 845.513 404.582L846.971 401.248C844.707 400.502 842.396 399.721 840.053 398.904L838.488 402.486C838.237 403.058 837.787 403.48 837.253 403.707C836.68 403.95 836.011 403.966 835.395 403.697C834.206 403.177 833.663 401.793 834.183 400.604L835.617 397.323C833.374 396.506 831.127 395.655 828.886 394.772C828.854 394.842 828.83 394.915 828.791 394.983L827.025 398.039C826.759 398.497 826.363 398.832 825.91 399.025C825.254 399.303 824.478 399.281 823.815 398.896C822.692 398.247 822.308 396.81 822.956 395.688L824.519 392.984C822.334 392.049 820.231 391.072 818.211 390.051L816.67 392.716C816.405 393.175 816.009 393.51 815.555 393.702C814.899 393.981 814.124 393.959 813.461 393.574C812.338 392.924 811.953 391.488 812.601 390.365L814.066 387.832C812.203 386.775 810.419 385.675 808.708 384.532L807.324 386.745C807.059 387.169 806.681 387.479 806.253 387.661C805.572 387.95 804.764 387.913 804.087 387.491C802.988 386.803 802.655 385.353 803.342 384.254L804.824 381.885C804.84 381.858 804.863 381.838 804.88 381.812C803.299 380.613 801.79 379.372 800.352 378.085L798.452 380.225C798.213 380.495 797.926 380.696 797.615 380.829C796.805 381.172 795.836 381.045 795.135 380.423C794.166 379.561 794.077 378.077 794.938 377.107L796.964 374.825C795.426 373.242 793.975 371.602 792.624 369.895L789.953 371.945C789.792 372.07 789.618 372.17 789.44 372.246C788.478 372.654 787.325 372.38 786.66 371.513C785.869 370.484 786.063 369.009 787.092 368.219L789.852 366.1C789.633 365.777 789.405 365.461 789.192 365.133C788.292 363.752 787.237 361.95 786.323 359.936Z" fill="#B3365B"/>
<path d="M846.231 377.686C846.807 378.093 847.403 378.514 847.796 378.699C849.021 379.28 850.454 379.466 851.969 379.662C853.765 379.895 855.8 380.159 857.712 381.159C859.822 382.262 861.333 384.169 861.755 386.263C862.118 388.062 861.649 389.863 860.434 391.333C859.619 392.32 858.572 393.029 857.414 393.521C854.378 394.81 850.579 394.597 848.187 393.937C844.771 392.993 840.921 390.644 838.38 387.952C836.778 386.255 834.979 382.226 835.768 379.073C836.204 377.33 837.37 376.069 839.049 375.495C841.281 374.748 843.326 375.87 844 376.24C844.803 376.679 845.562 377.215 846.231 377.686ZM845.784 382.945C845.027 382.586 844.296 382.071 843.523 381.526C842.928 381.105 842.312 380.672 841.742 380.359L841.74 380.358C840.834 379.861 840.544 379.949 840.543 379.95C840.514 379.96 840.49 379.967 840.471 379.975C840.395 380.008 840.366 380.049 840.326 380.213C840.014 381.458 841.022 383.906 841.796 384.727C843.759 386.807 846.831 388.689 849.438 389.409C851.937 390.099 855.582 389.829 856.812 388.34C857.128 387.958 857.232 387.604 857.151 387.192C857.012 386.506 856.362 385.754 855.536 385.322C854.366 384.711 852.908 384.521 851.366 384.321C849.638 384.097 847.681 383.844 845.784 382.945Z" fill="#B3365B"/>
<path d="M865.939 380.113C864.347 380.789 862.508 380.046 861.832 378.454C861.156 376.862 861.898 375.023 863.491 374.347C865.083 373.671 866.921 374.414 867.597 376.006C868.273 377.598 867.531 379.437 865.939 380.113Z" fill="#B3365B"/>
<path d="M869.117 398.115C867.525 398.791 865.686 398.049 865.01 396.457C864.334 394.865 865.077 393.026 866.669 392.35C868.261 391.674 870.1 392.416 870.776 394.008C871.452 395.6 870.709 397.439 869.117 398.115Z" fill="#B3365B"/>
<path d="M815.331 364.6C813.739 365.276 811.9 364.533 811.224 362.941C810.548 361.349 811.291 359.511 812.883 358.834C814.475 358.158 816.313 358.901 816.99 360.493C817.666 362.085 816.923 363.924 815.331 364.6Z" fill="#B3365B"/>
<path d="M829.344 386.083C827.752 386.759 825.913 386.016 825.237 384.424C824.561 382.832 825.304 380.993 826.896 380.317C828.488 379.641 830.327 380.384 831.003 381.976C831.679 383.568 830.936 385.406 829.344 386.083Z" fill="#B3365B"/>
<path d="M835.189 365.791C833.597 366.467 831.758 365.725 831.082 364.133C830.406 362.541 831.148 360.702 832.741 360.026C834.333 359.35 836.171 360.092 836.847 361.685C837.523 363.277 836.781 365.115 835.189 365.791Z" fill="#B3365B"/>
<path d="M811.888 356.492C810.694 356.999 809.315 356.443 808.808 355.248L807.048 351.104C806.541 349.91 807.098 348.531 808.292 348.024C809.486 347.517 810.865 348.074 811.372 349.268L813.132 353.412C813.639 354.606 813.082 355.985 811.888 356.492Z" fill="#B3365B"/>
<path d="M816.621 349.222C817.107 348.018 818.475 347.437 819.678 347.923C820.881 348.409 821.463 349.778 820.976 350.981L819.29 355.155C819.047 355.757 818.583 356.203 818.03 356.437C817.477 356.672 816.834 356.696 816.232 356.453C815.029 355.967 814.448 354.598 814.934 353.395L816.621 349.222Z" fill="#B3365B"/>
<path d="M827.8 355.903C828.307 357.097 827.749 358.476 826.556 358.983L822.412 360.742C821.218 361.249 819.839 360.693 819.332 359.499C818.824 358.304 819.382 356.925 820.576 356.418L824.72 354.659C825.913 354.152 827.293 354.708 827.8 355.903Z" fill="#B3365B"/>
<path d="M819.371 363.843C819.856 362.64 821.225 362.059 822.428 362.545L826.603 364.23C827.805 364.716 828.387 366.084 827.901 367.288C827.658 367.889 827.194 368.335 826.641 368.57C826.088 368.805 825.445 368.829 824.844 368.586L820.669 366.901C819.466 366.415 818.885 365.046 819.371 363.843Z" fill="#B3365B"/>
<path d="M816.325 366.942C817.519 366.435 818.898 366.992 819.405 368.186L821.165 372.33C821.672 373.524 821.115 374.903 819.921 375.41C818.727 375.917 817.348 375.361 816.841 374.166L815.081 370.022C814.574 368.828 815.132 367.449 816.325 366.942Z" fill="#B3365B"/>
<path d="M813.279 370.039L811.593 374.213C811.35 374.814 810.886 375.26 810.333 375.495C809.78 375.73 809.137 375.754 808.535 375.511C807.332 375.025 806.751 373.656 807.237 372.454L808.923 368.279C809.409 367.076 810.778 366.495 811.981 366.981C813.184 367.467 813.765 368.836 813.279 370.039Z" fill="#B3365B"/>
<path d="M808.882 363.936C809.389 365.13 808.831 366.509 807.638 367.016L803.494 368.776C802.3 369.283 800.921 368.726 800.414 367.532C799.906 366.337 800.464 364.958 801.658 364.452L805.802 362.692C806.995 362.185 808.375 362.742 808.882 363.936Z" fill="#B3365B"/>
<path d="M803.37 354.848L807.544 356.533C808.747 357.019 809.329 358.388 808.843 359.591C808.6 360.193 808.136 360.639 807.583 360.874C807.03 361.109 806.387 361.132 805.785 360.889L801.611 359.204C800.408 358.719 799.826 357.35 800.312 356.147C800.798 354.944 802.167 354.363 803.37 354.848Z" fill="#B3365B"/>
<path d="M887.912 396.302C886.32 396.978 884.481 396.235 883.805 394.643C883.129 393.051 883.872 391.212 885.464 390.536C887.056 389.86 888.894 390.603 889.571 392.195C890.247 393.787 889.504 395.625 887.912 396.302Z" fill="#B3365B"/>
<path d="M884.469 388.194C883.275 388.701 881.896 388.144 881.389 386.95L880.216 384.187C879.709 382.993 880.266 381.614 881.46 381.107C882.653 380.6 884.033 381.157 884.54 382.351L885.713 385.114C886.22 386.308 885.663 387.687 884.469 388.194Z" fill="#B3365B"/>
<path d="M887.515 385.097L888.64 382.314C889.126 381.112 890.494 380.531 891.697 381.017C892.9 381.503 893.482 382.871 892.996 384.075L891.871 386.857C891.628 387.458 891.165 387.904 890.611 388.139C890.058 388.374 889.415 388.398 888.814 388.155C887.611 387.669 887.029 386.3 887.515 385.097Z" fill="#B3365B"/>
<path d="M891.913 391.2C891.406 390.006 891.963 388.627 893.157 388.12L895.92 386.947C897.114 386.44 898.493 386.996 899 388.191C899.507 389.385 898.95 390.764 897.756 391.271L894.993 392.444C893.799 392.951 892.42 392.394 891.913 391.2Z" fill="#B3365B"/>
<path d="M897.831 399.71C897.277 399.945 896.634 399.968 896.033 399.726L893.25 398.603C892.047 398.117 891.466 396.748 891.952 395.545C892.438 394.342 893.806 393.761 895.009 394.246L897.792 395.369C898.995 395.855 899.576 397.224 899.09 398.427C898.847 399.029 898.384 399.475 897.831 399.71Z" fill="#B3365B"/>
<path d="M888.907 398.644C890.1 398.137 891.48 398.693 891.987 399.888L893.16 402.65C893.667 403.845 893.109 405.223 891.916 405.73C890.722 406.237 889.343 405.681 888.836 404.486L887.663 401.724C887.155 400.53 887.713 399.151 888.907 398.644Z" fill="#B3365B"/>
<path d="M885.86 401.741L884.736 404.523C884.493 405.124 884.029 405.57 883.476 405.805C882.923 406.04 882.28 406.064 881.678 405.821C880.475 405.335 879.894 403.966 880.38 402.763L881.504 399.98C881.991 398.778 883.359 398.197 884.562 398.683C885.765 399.169 886.346 400.538 885.86 401.741Z" fill="#B3365B"/>
<path d="M874.376 398.647C873.868 397.453 874.426 396.074 875.62 395.567L878.383 394.394C879.576 393.887 880.956 394.443 881.463 395.638C881.97 396.832 881.412 398.211 880.219 398.718L877.456 399.891C876.262 400.398 874.883 399.841 874.376 398.647Z" fill="#B3365B"/>
<path d="M880.164 392.575C879.611 392.81 878.968 392.834 878.367 392.592L875.584 391.468C874.38 390.982 873.799 389.614 874.285 388.41C874.771 387.207 876.139 386.627 877.342 387.111L880.125 388.235C881.328 388.721 881.91 390.09 881.424 391.293C881.181 391.894 880.717 392.34 880.164 392.575Z" fill="#B3365B"/>
<path d="M659.942 198.212C659.942 198.212 651.365 198.212 655.264 223.162C659.162 248.113 676.316 276.183 670.858 299.574C670.858 299.574 682.554 279.301 671.638 248.893C660.722 218.484 659.942 204.449 659.942 198.212Z" fill="#49AF05"/>
<path d="M660.722 263.707C660.722 263.707 654.484 293.336 645.907 301.913C637.331 310.49 643.568 325.304 657.603 325.304C657.603 325.304 652.145 314.388 656.823 301.913C662.281 288.658 660.722 266.826 660.722 263.707Z" fill="#408C0E"/>
<path d="M683.333 272.284C683.333 272.284 674.756 237.977 683.333 240.316C688.791 242.655 680.994 251.232 683.333 272.284Z" fill="#408C0E"/>
<path d="M656.043 240.316C656.043 240.316 669.298 274.623 616.278 294.896C563.258 315.168 559.359 318.287 545.324 339.339C545.324 339.339 557.8 304.252 613.159 285.539C642.788 275.403 651.365 257.47 656.043 240.316Z" fill="#408C0E"/>
<path d="M609.261 350.255C617.838 307.371 629.533 306.591 635.771 302.693C647.467 294.896 635.771 290.997 631.093 294.896C624.075 299.574 609.261 305.032 609.261 350.255Z" fill="#49AF05"/>
<path d="M690.351 269.945C690.351 269.945 703.606 295.675 685.672 312.829C672.417 325.304 663.841 338.559 663.841 338.559C663.841 338.559 665.4 324.525 682.554 301.913C694.249 285.539 690.351 278.522 690.351 269.945Z" fill="#408C0E"/>
<path d="M702.826 285.539C702.826 285.539 717.641 315.168 743.371 322.185C767.542 329.203 773 344.797 773 344.797C773 344.797 752.728 333.101 743.371 331.542C715.302 325.304 701.267 298.014 702.826 285.539Z" fill="#49AF05"/>
<path d="M666.959 188.855C666.959 188.855 674.756 177.939 669.298 166.243C663.061 154.548 647.466 142.852 647.466 142.852C647.466 142.852 645.127 157.667 649.026 164.684C653.704 171.701 666.959 181.058 666.959 188.855Z" fill="#408C0E"/>
<path d="M708.284 237.977C708.284 237.977 709.843 223.942 698.927 216.925C688.011 209.907 668.519 207.568 668.519 207.568C668.519 207.568 673.977 221.603 681.774 225.501C689.571 229.4 704.385 230.959 708.284 237.977Z" fill="#408C0E"/>
<path d="M655.264 189.635C655.264 189.635 654.484 175.6 642.788 170.142C631.093 164.684 611.6 164.684 611.6 164.684C611.6 164.684 618.617 177.939 626.414 181.058C634.991 184.956 651.365 183.397 655.264 189.635Z" fill="#49AF05"/>
<path d="M553.122 165.464C553.122 165.464 552.342 151.429 540.646 145.971C528.951 140.513 509.458 140.513 509.458 140.513C509.458 140.513 516.475 153.768 524.273 156.887C532.07 160.006 548.444 159.226 553.122 165.464Z" fill="#408C0E"/>
<path d="M669.299 195.093C669.299 195.093 682.554 197.432 691.13 187.296C698.928 177.159 703.606 157.667 703.606 157.667C703.606 157.667 689.571 161.565 684.113 168.583C678.655 175.6 677.096 191.974 669.299 195.093Z" fill="#408C0E"/>
<path d="M743.371 212.246C743.371 212.246 738.693 198.991 726.218 197.432C713.742 195.872 694.25 201.33 694.25 201.33C694.25 201.33 705.165 211.467 713.742 212.246C722.319 213.026 737.134 207.568 743.371 212.246Z" fill="#49AF05"/>
<path d="M673.197 157.667C673.197 157.667 686.452 155.327 690.351 142.852C694.249 130.377 690.351 110.884 690.351 110.884C690.351 110.884 678.655 120.241 676.316 128.038C673.977 135.835 678.655 152.209 673.197 157.667Z" fill="#49AF05"/>
<path d="M596.785 124.139C596.785 124.139 593.667 137.394 603.023 145.971C613.159 154.548 631.872 160.006 631.872 160.006C631.872 160.006 628.753 145.191 621.736 139.733C614.719 135.055 599.125 131.936 596.785 124.139Z" fill="#408C0E"/>
<path d="M504 180.278C504 180.278 511.017 191.974 524.272 191.194C537.528 190.415 554.681 181.058 554.681 181.058C554.681 181.058 542.206 173.261 533.629 174.041C525.052 174.82 511.017 184.177 504 180.278Z" fill="#49AF05"/>
<path d="M714.522 160.006C714.522 160.006 727.777 164.684 737.133 156.107C746.49 147.531 754.287 128.818 754.287 128.818C754.287 128.818 739.472 130.377 733.235 136.615C727.777 142.852 722.319 158.446 714.522 160.006Z" fill="#408C0E"/>
<path d="M698.927 142.852C698.927 142.852 712.183 145.191 720.759 135.055C728.556 124.919 733.235 105.426 733.235 105.426C733.235 105.426 719.2 109.325 713.742 116.342C708.284 124.139 705.945 139.734 698.927 142.852Z" fill="#408C0E"/>
<path d="M656.823 142.072C656.823 142.072 665.4 131.156 659.162 119.461C652.925 107.765 638.11 95.2898 638.11 95.2898C638.11 95.2898 634.991 110.104 639.67 117.122C644.348 125.698 657.603 134.275 656.823 142.072Z" fill="#408C0E"/>
<path d="M626.414 133.496C626.414 133.496 629.533 120.241 620.177 111.664C610.82 103.087 592.107 97.6292 592.107 97.6292C592.107 97.6292 595.226 112.444 602.243 117.902C608.481 123.36 624.075 126.478 626.414 133.496Z" fill="#49AF05"/>
<path d="M596.006 160.006C596.006 160.006 596.006 145.971 584.31 140.513C572.614 135.055 553.122 135.055 553.122 135.055C553.122 135.055 560.139 148.31 567.936 151.429C575.733 155.328 591.327 153.768 596.006 160.006Z" fill="#408C0E"/>
<path d="M583.531 200.551C583.531 200.551 574.174 190.414 561.699 194.313C549.223 198.212 534.409 211.467 534.409 211.467C534.409 211.467 548.444 216.925 556.241 213.806C564.038 210.687 576.513 198.212 583.531 200.551Z" fill="#408C0E"/>
<path d="M754.287 174.82C754.287 174.82 744.93 164.684 732.455 167.803C719.98 170.922 705.165 184.177 705.165 184.177C705.165 184.177 719.2 189.635 726.997 187.296C734.794 184.957 746.49 173.261 754.287 174.82Z" fill="#408C0E"/>
<path d="M667.739 114.783C667.739 114.783 680.994 112.443 684.893 99.9681C688.791 87.4927 684.893 68 684.893 68C684.893 68 673.197 77.3565 670.858 85.1536C669.298 93.7304 673.197 109.325 667.739 114.783Z" fill="#408C0E"/>
<path d="M648.246 200.551C648.246 200.551 640.449 188.855 627.974 190.414C614.719 191.974 598.345 202.11 598.345 202.11C598.345 202.11 610.82 209.907 619.397 208.348C627.974 206.788 641.229 197.432 648.246 200.551Z" fill="#408C0E"/>
<path d="M645.907 211.467C645.907 211.467 632.652 206.788 623.296 216.145C613.939 225.501 606.922 243.435 606.922 243.435C606.922 243.435 621.736 241.096 627.194 234.858C633.432 228.62 638.11 213.026 645.907 211.467Z" fill="#408C0E"/>
<path d="M559.359 219.264C559.359 219.264 566.377 230.96 579.632 230.18C592.887 229.4 609.261 219.264 609.261 219.264C609.261 219.264 596.785 211.467 588.208 212.246C579.632 213.806 566.377 223.162 559.359 219.264Z" fill="#49AF05"/>
<path d="M611.6 187.296C611.6 187.296 608.481 174.041 596.006 170.142C583.531 167.023 564.038 170.142 564.038 170.142C564.038 170.142 573.394 181.838 581.971 183.397C590.548 184.957 606.142 181.058 611.6 187.296Z" fill="#408C0E"/>
<path d="M563.511 351.394C565.921 358.37 573.558 362.084 580.534 359.674C587.509 357.264 591.224 349.627 588.814 342.651C586.404 335.676 578.767 331.961 571.791 334.371C564.815 336.782 561.101 344.419 563.511 351.394ZM587.232 343.198C589.342 349.302 586.092 355.983 579.987 358.093C573.883 360.202 567.202 356.952 565.093 350.848C562.983 344.743 566.233 338.062 572.337 335.953C578.442 333.844 585.123 337.093 587.232 343.198Z" fill="#EBCACA"/>
<path d="M567.465 350.028C569.122 354.824 574.372 357.378 579.168 355.721C583.964 354.063 586.517 348.813 584.86 344.017C583.203 339.222 577.953 336.668 573.157 338.325C568.362 339.982 565.808 345.232 567.465 350.028ZM583.279 344.564C584.635 348.488 582.545 352.783 578.621 354.139C574.698 355.495 570.402 353.406 569.046 349.482C567.69 345.557 569.78 341.262 573.704 339.906C577.627 338.551 581.923 340.64 583.279 344.564Z" fill="#EBCACA"/>
<path d="M577.011 352.04L576.465 350.459C575.157 350.911 573.725 350.214 573.273 348.906L571.691 349.453C572.445 351.633 574.831 352.793 577.011 352.04Z" fill="#EBCACA"/>
<path d="M549.021 381.184C551.431 388.16 559.068 391.874 566.044 389.464C573.019 387.054 576.734 379.417 574.324 372.441C571.914 365.465 564.277 361.751 557.301 364.161C550.325 366.571 546.611 374.208 549.021 381.184ZM572.742 372.988C574.852 379.092 571.602 385.773 565.497 387.882C559.393 389.992 552.712 386.742 550.603 380.638C548.493 374.533 551.743 367.852 557.847 365.743C563.952 363.633 570.633 366.883 572.742 372.988Z" fill="#EBCACA"/>
<path d="M552.975 379.818C554.632 384.613 559.882 387.167 564.678 385.51C569.474 383.853 572.027 378.603 570.37 373.807C568.713 369.012 563.463 366.458 558.667 368.115C553.872 369.772 551.318 375.022 552.975 379.818ZM568.789 374.354C570.145 378.278 568.055 382.573 564.131 383.929C560.208 385.285 555.912 383.196 554.556 379.271C553.2 375.347 555.29 371.052 559.214 369.696C563.137 368.34 567.433 370.429 568.789 374.354Z" fill="#EBCACA"/>
<path d="M562.521 381.83L561.975 380.249C560.667 380.7 559.235 380.004 558.783 378.696L557.201 379.243C557.955 381.423 560.341 382.583 562.521 381.83Z" fill="#EBCACA"/>
<path d="M579.615 372.383C580.82 375.871 584.638 377.728 588.126 376.523C591.614 375.318 593.471 371.5 592.266 368.012C591.061 364.524 587.242 362.667 583.755 363.872C580.267 365.077 578.41 368.896 579.615 372.383ZM590.685 368.558C591.589 371.175 590.196 374.038 587.58 374.942C584.963 375.846 582.1 374.453 581.196 371.837C580.292 369.22 581.685 366.357 584.301 365.453C586.918 364.549 589.781 365.942 590.685 368.558Z" fill="#EBCACA"/>
<path d="M587.824 373.087L587.277 371.506C585.97 371.958 584.538 371.261 584.086 369.953L582.504 370.5C583.257 372.68 585.644 373.84 587.824 373.087Z" fill="#EBCACA"/>
<path d="M546.302 350.26C547.507 353.747 551.326 355.605 554.813 354.4C558.301 353.194 560.158 349.376 558.953 345.888C557.748 342.4 553.93 340.543 550.442 341.748C546.954 342.953 545.097 346.772 546.302 350.26ZM557.372 346.435C558.276 349.051 556.883 351.914 554.267 352.818C551.65 353.722 548.787 352.33 547.883 349.713C546.979 347.097 548.372 344.234 550.988 343.33C553.605 342.426 556.468 343.818 557.372 346.435Z" fill="#EBCACA"/>
<path d="M554.511 350.963L553.965 349.382C552.657 349.834 551.225 349.137 550.773 347.83L549.191 348.376C549.945 350.556 552.331 351.717 554.511 350.963Z" fill="#EBCACA"/>
<path d="M978.362 403.496C986.366 407.612 989.576 417.251 985.459 425.256C981.343 433.26 971.563 436.397 963.559 432.28C955.555 428.164 952.559 418.457 956.675 410.453C960.791 402.448 970.358 399.38 978.362 403.496V403.496ZM947.159 396.506C950.529 398.239 951.825 402.28 950.092 405.65C948.359 409.02 944.39 410.176 941.02 408.443C937.65 406.71 936.281 402.809 938.014 399.439C939.747 396.069 943.789 394.772 947.159 396.506ZM971.546 375.666C976.881 378.409 978.858 384.929 976.114 390.264C973.37 395.599 966.991 397.648 961.653 394.903C956.315 392.158 954.269 385.78 957.014 380.442C959.76 375.104 966.208 372.92 971.546 375.666Z" fill="#EBCACA"/>
<path d="M349.109 395.795C348.967 395.525 348.753 395.299 348.491 395.141C348.23 394.984 347.93 394.901 347.625 394.901H335.717L342.112 373.153C342.223 372.774 342.197 372.367 342.039 372.005C341.88 371.643 341.599 371.349 341.245 371.174C340.89 370.999 340.485 370.954 340.102 371.048C339.718 371.142 339.379 371.368 339.146 371.687L313.738 406.394C313.555 406.644 313.444 406.94 313.419 407.249C313.394 407.559 313.455 407.869 313.595 408.145C313.736 408.422 313.95 408.654 314.214 408.817C314.478 408.979 314.783 409.065 315.093 409.065H328.274L321.678 431.855C321.567 432.238 321.596 432.649 321.761 433.013C321.926 433.377 322.215 433.67 322.576 433.84C322.938 434.01 323.348 434.046 323.733 433.941C324.119 433.836 324.454 433.596 324.679 433.266L349.013 397.524C349.185 397.272 349.285 396.978 349.302 396.673C349.319 396.368 349.252 396.064 349.109 395.795ZM327.834 422.666L332.121 407.853C332.193 407.603 332.207 407.339 332.16 407.083C332.113 406.827 332.007 406.585 331.85 406.377C331.694 406.169 331.491 406 331.258 405.883C331.025 405.767 330.768 405.707 330.507 405.707H318.403L336.179 381.425L331.863 396.106C331.789 396.356 331.775 396.62 331.821 396.877C331.867 397.134 331.973 397.377 332.129 397.586C332.286 397.795 332.489 397.965 332.722 398.081C332.956 398.198 333.213 398.259 333.474 398.259H344.451L327.834 422.666Z" fill="#EBCACA"/>
<path d="M310.269 402.421C310.269 401.928 310.074 401.455 309.725 401.106C309.376 400.758 308.903 400.562 308.41 400.562H304.859C304.366 400.562 303.893 400.758 303.545 401.106C303.196 401.455 303 401.928 303 402.421C303 402.914 303.196 403.387 303.545 403.735C303.893 404.084 304.366 404.28 304.859 404.28H308.41C308.655 404.28 308.896 404.232 309.122 404.138C309.347 404.045 309.552 403.908 309.725 403.735C309.898 403.563 310.035 403.358 310.128 403.132C310.221 402.907 310.27 402.665 310.269 402.421Z" fill="#EBCACA"/>
<path d="M357.859 400.562H354.307C353.814 400.562 353.341 400.758 352.993 401.106C352.644 401.455 352.448 401.928 352.448 402.421C352.448 402.914 352.644 403.387 352.993 403.735C353.341 404.084 353.814 404.28 354.307 404.28H357.859C358.352 404.28 358.825 404.084 359.173 403.735C359.522 403.387 359.718 402.914 359.718 402.421C359.718 401.928 359.522 401.455 359.173 401.106C358.825 400.758 358.352 400.562 357.859 400.562V400.562Z" fill="#EBCACA"/>
<path d="M313.714 387.361C314.061 387.696 314.524 387.883 315.007 387.883C315.489 387.883 315.952 387.696 316.299 387.361C316.634 387.014 316.821 386.551 316.821 386.069C316.821 385.586 316.634 385.123 316.299 384.776L311.279 379.738C310.921 379.469 310.478 379.339 310.031 379.37C309.584 379.402 309.164 379.593 308.848 379.91C308.531 380.227 308.339 380.647 308.308 381.094C308.276 381.54 308.407 381.983 308.676 382.341L313.714 387.361Z" fill="#EBCACA"/>
<path d="M315.814 417.481C315.505 417.269 315.139 417.156 314.765 417.156C314.39 417.156 314.024 417.269 313.715 417.481L308.676 422.501C308.335 422.848 308.145 423.315 308.145 423.802C308.145 424.289 308.335 424.756 308.676 425.103C309.024 425.444 309.491 425.635 309.977 425.635C310.464 425.635 310.931 425.444 311.279 425.103L316.299 420.065C316.577 419.658 316.683 419.157 316.592 418.672C316.501 418.188 316.221 417.759 315.814 417.481V417.481Z" fill="#EBCACA"/>
<path d="M349.003 417.481C348.645 417.236 348.213 417.124 347.781 417.164C347.35 417.205 346.946 417.394 346.639 417.701C346.333 418.007 346.143 418.411 346.103 418.843C346.062 419.275 346.174 419.707 346.419 420.065L351.439 425.103C351.786 425.444 352.253 425.635 352.74 425.635C353.227 425.635 353.694 425.444 354.041 425.103C354.382 424.756 354.573 424.289 354.573 423.802C354.573 423.315 354.382 422.848 354.041 422.501L349.003 417.481Z" fill="#EBCACA"/>
<path d="M349.003 387.361L354.042 382.341C354.311 381.983 354.441 381.54 354.41 381.093C354.378 380.647 354.186 380.226 353.87 379.91C353.553 379.593 353.133 379.402 352.686 379.37C352.24 379.338 351.797 379.469 351.439 379.738L346.419 384.777C346.083 385.123 345.896 385.587 345.896 386.069C345.896 386.551 346.083 387.015 346.419 387.361C346.765 387.696 347.229 387.884 347.711 387.883C348.193 387.883 348.656 387.696 349.003 387.361V387.361Z" fill="#EBCACA"/>
<path d="M379.724 387.762C379.897 387.669 379.554 387.83 379.724 387.762V387.762Z" fill="#B3365B"/>
<path d="M390.752 414.894C390.583 414.964 390.938 414.841 390.752 414.894V414.894Z" fill="#B3365B"/>
<path d="M391.304 415.621L486.504 376.956C486.287 376.335 485.486 374.326 484.4 371.638L449.762 385.715C449.627 385.77 449.474 385.767 449.339 385.71L440.681 382.055L430.347 386.254L427.319 393.427C427.614 393.655 427.873 393.931 428.024 394.302C428.478 395.417 427.942 396.687 426.825 397.142C425.71 397.595 424.439 397.058 423.985 395.943C423.825 395.547 423.825 395.139 423.897 394.747L421.85 393.791C421.629 394.058 421.363 394.292 421.018 394.432C419.901 394.887 418.632 394.349 418.179 393.232C417.725 392.117 418.261 390.847 419.378 390.393C420.494 389.94 421.764 390.476 422.217 391.592C422.378 391.987 422.378 392.394 422.306 392.786L424.353 393.743C424.574 393.475 424.84 393.242 425.184 393.102C425.556 392.95 425.935 392.945 426.305 392.997L429.421 385.616C429.478 385.482 429.586 385.373 429.721 385.318L440.478 380.948C440.613 380.893 440.765 380.895 440.9 380.952L449.558 384.607L483.986 370.615C483.411 369.197 482.775 367.635 482.11 366.009L450.602 378.812C450.466 378.866 450.311 378.865 450.176 378.806L434.165 371.892L420.974 377.252C421.094 378.205 420.606 379.158 419.672 379.535C419.321 379.679 418.961 379.693 418.61 379.655L417.741 381.714C418.105 381.947 418.426 382.258 418.602 382.692C419.053 383.807 418.518 385.077 417.404 385.53C416.971 385.706 416.525 385.695 416.1 385.596L415.124 387.908C415.455 388.141 415.745 388.434 415.908 388.835C416.363 389.949 415.825 391.223 414.709 391.676C414.308 391.839 413.895 391.835 413.498 391.76L412.587 393.919C412.912 394.152 413.202 394.443 413.364 394.842C413.816 395.954 413.28 397.225 412.165 397.681C411.766 397.844 411.356 397.839 410.961 397.766L409.93 400.207C410.225 400.435 410.486 400.711 410.637 401.081C411.088 402.199 410.554 403.471 409.437 403.922C408.324 404.377 407.051 403.84 406.597 402.722C406.448 402.357 406.44 401.985 406.49 401.618L404.065 400.613C403.837 400.91 403.558 401.175 403.182 401.327C402.068 401.78 400.798 401.244 400.342 400.128C399.891 399.011 400.426 397.743 401.541 397.288C402.659 396.835 403.929 397.371 404.381 398.487C404.53 398.854 404.539 399.228 404.489 399.595L406.913 400.6C407.141 400.3 407.421 400.034 407.795 399.882C408.168 399.732 408.546 399.726 408.916 399.779L409.96 397.306C409.695 397.086 409.464 396.823 409.326 396.483C408.872 395.363 409.407 394.095 410.525 393.642C410.866 393.502 411.217 393.483 411.56 393.519L412.498 391.297C412.237 391.078 412.009 390.815 411.871 390.477C411.418 389.36 411.954 388.091 413.071 387.636C413.409 387.498 413.757 387.478 414.096 387.511L415.114 385.101C414.886 384.889 414.69 384.638 414.565 384.33C414.109 383.214 414.645 381.944 415.763 381.491C416.071 381.366 416.388 381.331 416.699 381.349L417.587 379.246C417.27 379.016 416.992 378.731 416.833 378.34C416.379 377.224 416.916 375.951 418.033 375.498C418.968 375.118 419.981 375.459 420.562 376.226L433.965 370.78C434.101 370.726 434.256 370.728 434.391 370.787L450.401 377.702L481.692 364.987C478.73 357.745 475.402 349.679 474.782 348.171L379.616 386.854C374.385 389.452 365.934 396.745 370.268 407.41C374.599 418.073 385.746 417.406 391.304 415.621ZM385.147 393.565C384.031 394.02 382.759 393.483 382.306 392.365C381.854 391.253 382.389 389.981 383.504 389.527C384.621 389.073 385.893 389.611 386.345 390.726C386.507 391.122 386.506 391.529 386.434 391.921L388.482 392.875C388.703 392.608 388.968 392.376 389.312 392.236C390.429 391.783 391.7 392.319 392.154 393.436C392.607 394.552 392.072 395.82 390.955 396.275C389.839 396.727 388.567 396.192 388.113 395.077C387.952 394.68 387.954 394.272 388.026 393.88L385.978 392.925C385.757 393.193 385.491 393.426 385.147 393.565ZM389.46 409.969C389.007 408.851 389.542 407.579 390.656 407.128C391.026 406.977 391.403 406.971 391.772 407.022L392.63 404.979C392.247 404.746 391.914 404.425 391.731 403.976C391.279 402.86 391.815 401.589 392.93 401.136C393.376 400.954 393.835 400.969 394.267 401.076L395.288 398.646C394.878 398.412 394.521 398.075 394.331 397.604C393.876 396.485 394.413 395.214 395.53 394.764C395.997 394.574 396.484 394.591 396.936 394.718L397.759 392.757C397.427 392.525 397.132 392.23 396.969 391.825C396.515 390.709 397.052 389.438 398.168 388.984C398.569 388.821 398.982 388.825 399.377 388.9L400.404 386.457C400.108 386.229 399.846 385.951 399.695 385.58C399.242 384.464 399.776 383.194 400.894 382.741C402.009 382.286 403.28 382.823 403.734 383.939C403.875 384.286 403.89 384.64 403.852 384.988L406.28 386.031C406.507 385.741 406.782 385.483 407.149 385.334C408.264 384.882 409.535 385.419 409.99 386.534C410.443 387.651 409.906 388.923 408.79 389.375C407.675 389.83 406.403 389.292 405.951 388.175C405.797 387.799 405.794 387.417 405.847 387.045L403.449 386.015C403.218 386.336 402.929 386.62 402.535 386.779C402.164 386.93 401.788 386.936 401.418 386.885L400.378 389.361C400.64 389.582 400.869 389.844 401.006 390.182C401.459 391.298 400.922 392.569 399.807 393.024C399.471 393.16 399.126 393.182 398.789 393.15L397.904 395.259C398.097 395.456 398.259 395.689 398.37 395.961C398.821 397.075 398.283 398.349 397.167 398.803C396.899 398.912 396.623 398.955 396.353 398.956L395.248 401.584C395.466 401.791 395.649 402.039 395.769 402.335C396.221 403.449 395.684 404.721 394.57 405.176C394.276 405.295 393.976 405.337 393.678 405.327L392.788 407.449C393.085 407.678 393.347 407.955 393.497 408.327C393.953 409.442 393.415 410.712 392.297 411.168C391.183 411.621 389.914 411.084 389.46 409.969Z" fill="#B3365B"/>
<path d="M546.061 355.989L532.244 321.979L500.482 338.393L511.634 365.837L546.061 355.989ZM526.853 347.234C526.985 347.558 526.828 347.926 526.504 348.06C526.18 348.19 525.812 348.035 525.68 347.712C525.548 347.387 525.704 347.018 526.028 346.887C526.351 346.755 526.723 346.91 526.853 347.234ZM526.695 329.033C526.415 328.343 526.746 327.555 527.438 327.273C528.128 326.993 528.916 327.326 529.198 328.016C529.478 328.708 529.145 329.494 528.455 329.776C527.762 330.057 526.977 329.726 526.695 329.033ZM525.88 332.933C526.441 332.703 527.081 332.975 527.308 333.536C527.535 334.097 527.268 334.735 526.707 334.964C526.144 335.193 525.505 334.921 525.277 334.361C525.049 333.801 525.319 333.162 525.88 332.933ZM518.468 332.829C518.243 332.276 518.509 331.646 519.062 331.422C519.612 331.197 520.246 331.463 520.47 332.016C520.695 332.568 520.428 333.2 519.875 333.426C519.322 333.648 518.693 333.383 518.468 332.829ZM531.447 340.729C531.797 340.588 532.197 340.757 532.339 341.105C532.48 341.454 532.312 341.853 531.962 341.996C531.613 342.136 531.215 341.968 531.071 341.62C530.93 341.27 531.097 340.87 531.447 340.729ZM523.302 338.224C523.891 337.985 524.561 338.268 524.799 338.855C525.038 339.444 524.755 340.114 524.166 340.353C523.58 340.591 522.908 340.308 522.67 339.721C522.432 339.13 522.714 338.461 523.302 338.224ZM514.975 338.548C514.694 337.857 515.027 337.068 515.716 336.788C516.407 336.507 517.195 336.839 517.476 337.531C517.757 338.222 517.426 339.01 516.733 339.29C516.044 339.574 515.254 339.239 514.975 338.548ZM517.054 340.08C517.966 339.709 519.006 340.148 519.375 341.06C519.745 341.973 519.308 343.01 518.396 343.38C517.485 343.75 516.444 343.312 516.075 342.4C515.704 341.487 516.143 340.45 517.054 340.08ZM502.551 340.369C502.27 339.678 502.603 338.89 503.294 338.607C503.985 338.328 504.773 338.661 505.052 339.351C505.335 340.043 505.002 340.831 504.31 341.11C503.62 341.391 502.832 341.059 502.551 340.369ZM506.586 343.141C506.437 342.774 506.516 342.385 506.735 342.088C506.637 341.962 506.531 341.84 506.468 341.685C506.104 340.787 506.536 339.764 507.433 339.4C508.33 339.034 509.356 339.467 509.72 340.364C510.086 341.262 509.654 342.285 508.755 342.651C508.733 342.66 508.708 342.656 508.685 342.663C508.712 343.12 508.464 343.561 508.017 343.743C507.454 343.972 506.814 343.701 506.586 343.141ZM519.359 354.263C519.215 353.905 519.391 353.497 519.754 353.351C520.119 353.203 520.53 353.373 520.675 353.73C520.819 354.088 520.645 354.497 520.28 354.645C519.917 354.792 519.504 354.621 519.359 354.263ZM510.467 351.524C511.027 351.296 511.666 351.566 511.894 352.126C512.122 352.689 511.852 353.328 511.29 353.556C510.729 353.785 510.09 353.515 509.864 352.952C509.635 352.392 509.904 351.754 510.467 351.524Z" fill="#B3365B"/>
<path d="M366.565 395.452C368.727 390.331 373.176 386.57 376.935 384.479L376.913 384.426L378.921 383.48L378.953 383.536L512.874 329.098L519.177 324.089C519.654 323.71 520.349 323.789 520.728 324.267C521.108 324.743 521.028 325.438 520.551 325.818L513.851 331.085L378.861 385.956C372.921 388.933 364.214 396.869 368.748 408.029C373.289 419.205 385.102 418.797 391.395 416.79L526.543 361.897L534.869 361.059C535.476 360.998 536.017 361.44 536.078 362.047C536.14 362.652 535.697 363.194 535.09 363.256L527.08 364.062L393.192 418.441L393.21 418.502L391.133 419.227L391.108 419.174C383.932 421.14 371.63 420.987 366.701 408.859C364.621 403.735 364.974 399.225 366.565 395.452Z" fill="#B3365B"/>
<path d="M197.28 520V436H210.12L246.84 497.32H240.12L276.24 436H289.08L289.2 520H274.44L274.32 459.16H277.44L246.72 510.4H239.76L208.56 459.16H212.16V520H197.28ZM340.569 520.84C333.449 520.84 327.209 519.44 321.849 516.64C316.569 513.76 312.449 509.84 309.489 504.88C306.609 499.92 305.169 494.28 305.169 487.96C305.169 481.56 306.569 475.92 309.369 471.04C312.249 466.08 316.169 462.2 321.129 459.4C326.169 456.6 331.889 455.2 338.289 455.2C344.529 455.2 350.089 456.56 354.969 459.28C359.849 462 363.689 465.84 366.489 470.8C369.289 475.76 370.689 481.6 370.689 488.32C370.689 488.96 370.649 489.68 370.569 490.48C370.569 491.28 370.529 492.04 370.449 492.76H317.049V482.8H362.529L356.649 485.92C356.729 482.24 355.969 479 354.369 476.2C352.769 473.4 350.569 471.2 347.769 469.6C345.049 468 341.889 467.2 338.289 467.2C334.609 467.2 331.369 468 328.569 469.6C325.849 471.2 323.689 473.44 322.089 476.32C320.569 479.12 319.809 482.44 319.809 486.28V488.68C319.809 492.52 320.689 495.92 322.449 498.88C324.209 501.84 326.689 504.12 329.889 505.72C333.089 507.32 336.769 508.12 340.929 508.12C344.529 508.12 347.769 507.56 350.649 506.44C353.529 505.32 356.089 503.56 358.329 501.16L366.369 510.4C363.489 513.76 359.849 516.36 355.449 518.2C351.129 519.96 346.169 520.84 340.569 520.84ZM465.978 455.2C471.098 455.2 475.618 456.2 479.538 458.2C483.538 460.2 486.658 463.28 488.898 467.44C491.138 471.52 492.258 476.8 492.258 483.28V520H477.258V485.2C477.258 479.52 476.018 475.28 473.538 472.48C471.058 469.68 467.498 468.28 462.858 468.28C459.578 468.28 456.658 469 454.098 470.44C451.618 471.88 449.658 474 448.218 476.8C446.858 479.6 446.178 483.16 446.178 487.48V520H431.178V485.2C431.178 479.52 429.938 475.28 427.458 472.48C424.978 469.68 421.418 468.28 416.778 468.28C413.498 468.28 410.578 469 408.018 470.44C405.538 471.88 403.578 474 402.138 476.8C400.778 479.6 400.098 483.16 400.098 487.48V520H385.098V455.92H399.378V472.96L396.858 467.92C399.018 463.76 402.138 460.6 406.218 458.44C410.378 456.28 415.098 455.2 420.378 455.2C426.378 455.2 431.578 456.68 435.978 459.64C440.458 462.6 443.418 467.08 444.858 473.08L438.978 471.04C441.058 466.24 444.498 462.4 449.298 459.52C454.098 456.64 459.658 455.2 465.978 455.2ZM508.186 492.88V480.4H541.186V492.88H508.186ZM573.318 474.64H615.198V487.84H573.318V474.64ZM574.638 520H559.038V436H620.358V449.08H574.638V520ZM671.375 520V507.04L670.535 504.28V481.6C670.535 477.2 669.215 473.8 666.575 471.4C663.935 468.92 659.935 467.68 654.575 467.68C650.975 467.68 647.415 468.24 643.895 469.36C640.455 470.48 637.535 472.04 635.135 474.04L629.255 463.12C632.695 460.48 636.775 458.52 641.495 457.24C646.295 455.88 651.255 455.2 656.375 455.2C665.655 455.2 672.815 457.44 677.855 461.92C682.975 466.32 685.535 473.16 685.535 482.44V520H671.375ZM651.215 520.84C646.415 520.84 642.215 520.04 638.615 518.44C635.015 516.76 632.215 514.48 630.215 511.6C628.295 508.64 627.335 505.32 627.335 501.64C627.335 498.04 628.175 494.8 629.855 491.92C631.615 489.04 634.455 486.76 638.375 485.08C642.295 483.4 647.495 482.56 653.975 482.56H672.575V492.52H655.055C649.935 492.52 646.495 493.36 644.735 495.04C642.975 496.64 642.095 498.64 642.095 501.04C642.095 503.76 643.175 505.92 645.335 507.52C647.495 509.12 650.495 509.92 654.335 509.92C658.015 509.92 661.295 509.08 664.175 507.4C667.135 505.72 669.255 503.24 670.535 499.96L673.055 508.96C671.615 512.72 669.015 515.64 665.255 517.72C661.575 519.8 656.895 520.84 651.215 520.84ZM734.303 520.84C727.583 520.84 721.583 519.44 716.303 516.64C711.103 513.76 707.023 509.84 704.063 504.88C701.103 499.92 699.623 494.28 699.623 487.96C699.623 481.56 701.103 475.92 704.063 471.04C707.023 466.08 711.103 462.2 716.303 459.4C721.583 456.6 727.583 455.2 734.303 455.2C740.543 455.2 746.023 456.48 750.743 459.04C755.543 461.52 759.183 465.2 761.663 470.08L750.143 476.8C748.223 473.76 745.863 471.52 743.063 470.08C740.343 468.64 737.383 467.92 734.183 467.92C730.503 467.92 727.183 468.72 724.223 470.32C721.263 471.92 718.943 474.24 717.263 477.28C715.583 480.24 714.743 483.8 714.743 487.96C714.743 492.12 715.583 495.72 717.263 498.76C718.943 501.72 721.263 504 724.223 505.6C727.183 507.2 730.503 508 734.183 508C737.383 508 740.343 507.28 743.063 505.84C745.863 504.4 748.223 502.16 750.143 499.12L761.663 505.84C759.183 510.64 755.543 514.36 750.743 517C746.023 519.56 740.543 520.84 734.303 520.84ZM803.812 520.84C796.692 520.84 790.452 519.44 785.092 516.64C779.812 513.76 775.692 509.84 772.732 504.88C769.852 499.92 768.412 494.28 768.412 487.96C768.412 481.56 769.812 475.92 772.612 471.04C775.492 466.08 779.412 462.2 784.372 459.4C789.412 456.6 795.132 455.2 801.532 455.2C807.772 455.2 813.332 456.56 818.212 459.28C823.092 462 826.932 465.84 829.732 470.8C832.532 475.76 833.932 481.6 833.932 488.32C833.932 488.96 833.892 489.68 833.812 490.48C833.812 491.28 833.772 492.04 833.692 492.76H780.292V482.8H825.772L819.892 485.92C819.972 482.24 819.212 479 817.612 476.2C816.012 473.4 813.812 471.2 811.012 469.6C808.292 468 805.132 467.2 801.532 467.2C797.852 467.2 794.612 468 791.812 469.6C789.092 471.2 786.932 473.44 785.332 476.32C783.812 479.12 783.052 482.44 783.052 486.28V488.68C783.052 492.52 783.932 495.92 785.692 498.88C787.452 501.84 789.932 504.12 793.132 505.72C796.332 507.32 800.012 508.12 804.172 508.12C807.772 508.12 811.012 507.56 813.892 506.44C816.772 505.32 819.332 503.56 821.572 501.16L829.612 510.4C826.732 513.76 823.092 516.36 818.692 518.2C814.372 519.96 809.412 520.84 803.812 520.84ZM882.944 520V436H898.544V506.8H942.464V520H882.944ZM992.937 520V507.04L992.097 504.28V481.6C992.097 477.2 990.777 473.8 988.137 471.4C985.497 468.92 981.497 467.68 976.137 467.68C972.537 467.68 968.977 468.24 965.457 469.36C962.017 470.48 959.097 472.04 956.697 474.04L950.817 463.12C954.257 460.48 958.337 458.52 963.057 457.24C967.857 455.88 972.817 455.2 977.937 455.2C987.217 455.2 994.377 457.44 999.417 461.92C1004.54 466.32 1007.1 473.16 1007.1 482.44V520H992.937ZM972.777 520.84C967.977 520.84 963.777 520.04 960.177 518.44C956.577 516.76 953.777 514.48 951.777 511.6C949.857 508.64 948.897 505.32 948.897 501.64C948.897 498.04 949.737 494.8 951.417 491.92C953.177 489.04 956.017 486.76 959.937 485.08C963.857 483.4 969.057 482.56 975.537 482.56H994.137V492.52H976.617C971.497 492.52 968.057 493.36 966.297 495.04C964.537 496.64 963.657 498.64 963.657 501.04C963.657 503.76 964.737 505.92 966.897 507.52C969.057 509.12 972.057 509.92 975.897 509.92C979.577 509.92 982.857 509.08 985.737 507.4C988.697 505.72 990.817 503.24 992.097 499.96L994.617 508.96C993.177 512.72 990.577 515.64 986.817 517.72C983.137 519.8 978.457 520.84 972.777 520.84ZM1061.87 520.84C1056.43 520.84 1051.59 519.64 1047.35 517.24C1043.11 514.84 1039.75 511.24 1037.27 506.44C1034.87 501.56 1033.67 495.4 1033.67 487.96C1033.67 480.44 1034.91 474.28 1037.39 469.48C1039.95 464.68 1043.35 461.12 1047.59 458.8C1051.91 456.4 1056.67 455.2 1061.87 455.2C1068.19 455.2 1073.75 456.56 1078.55 459.28C1083.43 462 1087.27 465.8 1090.07 470.68C1092.95 475.56 1094.39 481.32 1094.39 487.96C1094.39 494.6 1092.95 500.36 1090.07 505.24C1087.27 510.12 1083.43 513.96 1078.55 516.76C1073.75 519.48 1068.19 520.84 1061.87 520.84ZM1026.35 520V430.96H1041.35V470.8L1040.15 487.84L1040.63 504.88V520H1026.35ZM1060.19 508C1063.79 508 1066.99 507.2 1069.79 505.6C1072.67 504 1074.95 501.68 1076.63 498.64C1078.31 495.6 1079.15 492.04 1079.15 487.96C1079.15 483.8 1078.31 480.24 1076.63 477.28C1074.95 474.24 1072.67 471.92 1069.79 470.32C1066.99 468.72 1063.79 467.92 1060.19 467.92C1056.59 467.92 1053.35 468.72 1050.47 470.32C1047.59 471.92 1045.31 474.24 1043.63 477.28C1041.95 480.24 1041.11 483.8 1041.11 487.96C1041.11 492.04 1041.95 495.6 1043.63 498.64C1045.31 501.68 1047.59 504 1050.47 505.6C1053.35 507.2 1056.59 508 1060.19 508Z" fill="white"/>
</svg>
