<?xml version="1.0" encoding="UTF-8" standalone="no"?>
<svg
   xmlns:dc="http://purl.org/dc/elements/1.1/"
   xmlns:cc="http://creativecommons.org/ns#"
   xmlns:rdf="http://www.w3.org/1999/02/22-rdf-syntax-ns#"
   xmlns:svg="http://www.w3.org/2000/svg"
   xmlns="http://www.w3.org/2000/svg"
   xmlns:sodipodi="http://sodipodi.sourceforge.net/DTD/sodipodi-0.dtd"
   xmlns:inkscape="http://www.inkscape.org/namespaces/inkscape"
   width="1024px"
   height="1024px"
   viewBox="0 0 1024 1024"
   class="icon"
   version="1.1"
   id="svg4"
   sodipodi:docname="twitter.svg"
   inkscape:version="1.0 (4035a4fb49, 2020-05-01)">
  <style
     id="style835"></style>
  <metadata
     id="metadata10">
    <rdf:RDF>
      <cc:Work
         rdf:about="">
        <dc:format>image/svg+xml</dc:format>
        <dc:type
           rdf:resource="http://purl.org/dc/dcmitype/StillImage" />
      </cc:Work>
    </rdf:RDF>
  </metadata>
  <defs
     id="defs8" />
  <sodipodi:namedview
     inkscape:document-rotation="0"
     pagecolor="#ffffff"
     bordercolor="#666666"
     borderopacity="1"
     objecttolerance="10"
     gridtolerance="10"
     guidetolerance="10"
     inkscape:pageopacity="0"
     inkscape:pageshadow="2"
     inkscape:window-width="1920"
     inkscape:window-height="1051"
     id="namedview6"
     showgrid="false"
     inkscape:zoom="0.43936785"
     inkscape:cx="416.19126"
     inkscape:cy="809.75844"
     inkscape:window-x="-9"
     inkscape:window-y="-9"
     inkscape:window-maximized="1"
     inkscape:current-layer="svg4" />
  <path
     d="M 510.86201,7.1000692 C 232.66847,7.1000692 7.1000692,232.66847 7.1000692,510.86201 c 0,278.19352 225.5684008,503.76189 503.7619408,503.76189 278.19352,0 503.76189,-225.56837 503.76189,-503.76189 0,-278.19354 -225.56837,-503.7619408 -503.76189,-503.7619408 z M 752.96009,386.83311 c 0.33734,5.28501 0.33734,10.7949 0.33734,16.19235 0,165.072 -125.71559,355.21963 -355.44453,355.21963 -70.84151,0 -136.51048,-20.57777 -191.83433,-55.99853 10.12022,1.12447 19.79064,1.57426 30.13575,1.57426 58.47237,0 112.22197,-19.79065 155.06422,-53.29982 -54.87407,-1.12446 -100.97728,-37.10746 -116.71984,-86.58408 19.22842,2.81117 36.54524,2.81117 56.33588,-2.24894 A 124.81602,124.81602 0 0 1 230.86932,439.12091 v -1.57426 c 16.52969,9.33309 35.98299,15.06788 56.33588,15.85501 a 124.96219,124.96219 0 0 1 -55.66119,-103.9009 c 0,-23.27651 6.07212,-44.52896 16.97947,-62.97024 a 354.52246,354.52246 0 0 0 257.50331,130.5508 c -17.65416,-84.89738 45.76587,-153.60241 122.00484,-153.60241 35.98299,0 68.36769,15.06788 91.19441,39.3564 28.22416,-5.285 55.2114,-15.85501 79.27503,-30.02331 -9.33309,28.89884 -28.89884,53.29981 -54.87407,68.70503 25.1881,-2.69873 49.47662,-9.67043 71.966,-19.4533 -16.97948,24.9632 -38.23194,47.11523 -62.63291,64.76938 z"
     id="path2"
     style="stroke-width:1.12446;fill:#1da1f2;fill-opacity:1" />
</svg>
